<svg width="44" height="44" viewBox="0 0 44 44" fill="none" xmlns="http://www.w3.org/2000/svg">
<path d="M21.535 11.4812C24.85 11.4812 25.2325 11.5025 26.55 11.545C27.7612 11.6087 28.42 11.8 28.845 11.97C29.4187 12.2037 29.8437 12.4587 30.2687 12.905C30.6937 13.33 30.97 13.755 31.2037 14.3287C31.3737 14.775 31.565 15.4125 31.6287 16.6237C31.6925 17.9412 31.6925 18.3237 31.6925 21.6387C31.6925 24.9537 31.6712 25.3362 31.6287 26.6537C31.565 27.865 31.3737 28.5237 31.2037 28.9487C30.97 29.5225 30.715 29.9475 30.2687 30.3725C29.8437 30.7975 29.4187 31.0737 28.845 31.3075C28.3987 31.4775 27.7612 31.6687 26.55 31.7325C25.2325 31.7962 24.85 31.7962 21.535 31.7962C18.22 31.7962 17.8375 31.775 16.52 31.7325C15.3087 31.6687 14.65 31.4775 14.225 31.3075C13.6512 31.0737 13.2262 30.8187 12.8012 30.3725C12.3762 29.9475 12.1 29.5225 11.8663 28.9487C11.6963 28.5025 11.505 27.865 11.4412 26.6537C11.3775 25.3362 11.3775 24.9537 11.3775 21.6387C11.3775 18.3237 11.3987 17.9412 11.4412 16.6237C11.505 15.4125 11.6963 14.7537 11.8663 14.3287C12.1 13.755 12.355 13.33 12.8012 12.905C13.2262 12.48 13.6512 12.2037 14.225 11.97C14.6712 11.8 15.3087 11.6087 16.52 11.545C17.8162 11.5025 18.22 11.4812 21.535 11.4812ZM21.535 9.25C18.1775 9.25 17.7525 9.27125 16.4137 9.335C15.0962 9.39875 14.1825 9.61125 13.3962 9.90875C12.5887 10.2275 11.8875 10.6525 11.2075 11.3325C10.5275 12.0125 10.1025 12.7137 9.78375 13.5212C9.48625 14.3075 9.27375 15.2212 9.21 16.5387C9.14625 17.8562 9.125 18.2812 9.125 21.66C9.125 25.0175 9.14625 25.4425 9.21 26.7812C9.27375 28.0987 9.48625 29.0125 9.78375 29.7987C10.1025 30.6062 10.5275 31.3075 11.2075 31.9875C11.8875 32.6675 12.5887 33.0925 13.3962 33.4112C14.1825 33.7087 15.0962 33.9212 16.4137 33.985C17.7312 34.0487 18.1562 34.07 21.535 34.07C24.8925 34.07 25.3175 34.0487 26.6562 33.985C27.9737 33.9212 28.8875 33.7087 29.6737 33.4112C30.4812 33.0925 31.1825 32.6675 31.8625 31.9875C32.5425 31.3075 32.9675 30.6062 33.2862 29.7987C33.5837 29.0125 33.7962 28.0987 33.86 26.7812C33.9237 25.4637 33.945 25.0387 33.945 21.66C33.945 18.3025 33.9237 17.8775 33.86 16.5387C33.7962 15.2212 33.5837 14.3075 33.2862 13.5212C32.9675 12.7137 32.5425 12.0125 31.8625 11.3325C31.1825 10.6525 30.4812 10.2275 29.6737 9.90875C28.8875 9.61125 27.9737 9.39875 26.6562 9.335C25.3175 9.27125 24.8925 9.25 21.535 9.25Z" fill="white"/>
<path d="M21.5342 15.2849C18.0279 15.2849 15.1592 18.1324 15.1592 21.6599C15.1592 25.1874 18.0067 28.0349 21.5342 28.0349C25.0404 28.0349 27.9092 25.1874 27.9092 21.6599C27.8879 18.1324 25.0404 15.2849 21.5342 15.2849ZM21.5342 25.7824C19.2604 25.7824 17.3904 23.9337 17.3904 21.6387C17.3904 19.3649 19.2392 17.4949 21.5342 17.4949C23.8079 17.4949 25.6779 19.3437 25.6779 21.6387C25.6567 23.9337 23.8079 25.7824 21.5342 25.7824Z" fill="white"/>
<path d="M29.6312 15.03C29.6312 15.8587 28.9725 16.5175 28.1438 16.5175C27.315 16.5175 26.6562 15.8587 26.6562 15.03C26.6562 14.2012 27.315 13.5425 28.1438 13.5425C28.9725 13.5425 29.6312 14.2012 29.6312 15.03Z" fill="white"/>
</svg>
