<svg width="43" height="44" viewBox="0 0 43 44" fill="none" xmlns="http://www.w3.org/2000/svg">
<path d="M34.6265 14.4775C34.3078 13.2662 33.3515 12.31 32.119 11.97C29.909 11.375 21.0478 11.375 21.0478 11.375C21.0478 11.375 12.2078 11.375 9.97654 11.97C8.76529 12.2887 7.80904 13.245 7.46904 14.4775C6.87404 16.6875 6.87402 21.2987 6.87402 21.2987C6.87402 21.2987 6.87404 25.91 7.46904 28.12C7.78779 29.3312 8.74404 30.2875 9.97654 30.6275C12.1865 31.2225 21.0478 31.2225 21.0478 31.2225C21.0478 31.2225 29.909 31.2225 32.119 30.6275C33.3303 30.3087 34.2865 29.3525 34.6265 28.12C35.2215 25.91 35.2215 21.2987 35.2215 21.2987C35.2215 21.2987 35.2215 16.6875 34.6265 14.4775ZM18.2428 25.5275V17.0275L25.5953 21.2775L18.2428 25.5275Z" fill="white"/>
</svg>
