<svg width="43" height="44" viewBox="0 0 43 44" fill="none" xmlns="http://www.w3.org/2000/svg">
<path d="M15.363 17.6863H11.1768V31.095H15.363V17.6863Z" fill="white"/>
<path d="M13.1537 16.0075H13.1325C11.6237 16.0075 10.625 14.9875 10.625 13.6912C10.625 12.3737 11.6237 11.375 13.175 11.375C14.705 11.375 15.6612 12.3737 15.6825 13.6912C15.7037 14.9875 14.7262 16.0075 13.1537 16.0075Z" fill="white"/>
<path d="M32.1081 31.0951H27.3481V24.1463C27.3481 22.3401 26.6043 21.0863 24.9681 21.0863C23.7143 21.0863 23.0343 21.9151 22.7156 22.7226C22.5881 23.0413 22.6093 23.4238 22.6093 23.8276V31.0738H17.9131C17.9131 31.0738 17.9768 18.7913 17.9131 17.6651H22.6093V19.7688C22.8856 18.8551 24.3943 17.5376 26.7743 17.5376C29.7493 17.5376 32.0868 19.4713 32.0868 23.6151V31.0951H32.1081Z" fill="white"/>
</svg>
