<svg width="43" height="44" viewBox="0 0 43 44" fill="none" xmlns="http://www.w3.org/2000/svg">
<path d="M30.169 16.1987C30.169 16.4112 30.169 16.6237 30.169 16.8362C30.169 23.3175 25.2603 30.755 16.2503 30.755C13.4878 30.755 10.9165 29.9475 8.74902 28.545C9.13152 28.5875 9.51403 28.6087 9.91778 28.6087C12.2128 28.6087 14.3165 27.8225 15.9953 26.5262C13.849 26.4837 12.0428 25.0812 11.4265 23.1262C11.724 23.19 12.0428 23.2112 12.3403 23.2112C12.7865 23.2112 13.2328 23.1475 13.6365 23.0412C11.4053 22.595 9.70527 20.6187 9.70527 18.2387V18.175C10.364 18.5362 11.129 18.77 11.9153 18.7912C10.5978 17.8987 9.74778 16.4112 9.74778 14.7112C9.74778 13.8187 9.98153 12.9687 10.4065 12.2462C12.829 15.2 16.4203 17.155 20.5003 17.3675C20.4153 17.0062 20.3728 16.645 20.3728 16.2625C20.3728 13.5637 22.5615 11.375 25.2603 11.375C26.6628 11.375 27.9378 11.97 28.8303 12.9262C29.9565 12.7137 30.9978 12.2887 31.9328 11.7363C31.5715 12.8837 30.7853 13.84 29.7865 14.435C30.7853 14.3075 31.7203 14.0525 32.5915 13.67C31.954 14.6475 31.1253 15.4975 30.169 16.1987Z" fill="white"/>
</svg>
