<svg width="238" height="56" viewBox="0 0 238 56" fill="none" xmlns="http://www.w3.org/2000/svg">
<path d="M21.6674 54.5263C33.9452 54.5263 42.2743 46.0437 42.2743 34.2543V27.9999H31.6053V34.2543C31.6053 40.4378 27.7314 44.461 21.6674 44.461C15.969 44.461 12.6793 40.9389 12.0951 35.9785H1.49805C2.08527 46.8336 10.0488 54.5263 21.6674 54.5263ZM31.6053 21.3861H42.2743V1.47363H21.4487V11.3945H31.6053V21.3861ZM71.285 53.5212H80.7855C80.0544 50.5031 79.5421 45.5427 79.5421 42.0913V30.517C79.5421 21.6042 73.9155 16.1397 63.9776 16.1397C53.2368 16.1397 48.56 22.8244 47.8289 28.1444H57.3294C57.9136 25.7717 60.0318 24.2627 63.687 24.2627C67.2673 24.2627 69.6072 26.0606 69.6072 29.6534V31.1625L60.4003 31.5928C50.6812 32.0968 46.7354 36.9128 46.7354 43.3823C46.7354 50.3557 51.7777 54.5233 59.4506 54.5233C65.1491 54.5233 68.8043 51.7911 70.6318 49.5629C70.7727 51.0749 71.0663 52.5132 71.285 53.5212ZM69.6042 40.3642C69.6042 45.1802 65.4397 46.7629 62.0781 46.7629C58.6447 46.7629 56.7452 45.469 56.7452 42.7368C56.7452 40.3642 58.2791 38.6399 62.4436 38.4248L69.6042 38.0652V40.3642ZM103.439 54.5263C108.481 54.5263 113.67 52.8021 116.81 49.9962L113.155 42.4479C110.377 44.1722 106.797 45.3246 104.02 45.3246C98.3213 45.3246 94.6661 41.5136 94.6661 35.333C94.6661 29.3675 98.2464 25.3414 104.532 25.3414C107.163 25.3414 110.231 26.4909 112.789 28.1444L116.807 20.3073C113.592 17.5751 109.206 16.1368 104.31 16.1368C91.6671 16.1368 84.2878 24.9789 84.2878 35.3301C84.2938 47.1225 91.6012 54.5263 103.439 54.5263ZM136.614 54.5263C148.014 54.5263 156.124 47.1225 156.124 35.333C156.124 23.5435 148.379 16.1397 136.979 16.1397C125.798 16.1397 117.835 24.1919 117.835 35.333C117.835 46.7629 125.433 54.5263 136.614 54.5263ZM136.979 45.5397C131.646 45.5397 128.21 41.7288 128.21 35.333C128.21 28.9343 131.643 25.1263 136.979 25.1263C142.312 25.1263 145.749 28.9372 145.749 35.333C145.749 41.7317 142.312 45.5397 136.979 45.5397ZM181.848 54.5263C190.689 54.5263 198.581 47.4821 198.581 35.333C198.581 23.5435 191.42 16.1397 182.214 16.1397C177.243 16.1397 173.444 18.2235 171.107 21.6749V1.47363H161.023V43.3852C161.023 46.8366 160.876 49.8547 160.585 53.5212H170.086C170.232 52.0829 170.379 50.5738 170.451 48.9204C173.151 52.6576 177.315 54.5263 181.848 54.5263ZM179.436 45.5397C174.103 45.5397 170.667 41.7288 170.667 35.333C170.667 28.9343 174.1 25.1263 179.436 25.1263C184.769 25.1263 188.206 28.9372 188.206 35.333C188.206 41.7317 184.769 45.5397 179.436 45.5397ZM216.339 54.5263C225.986 54.5263 232.706 49.6366 232.706 42.5216C232.706 36.4117 229.051 32.8159 221.381 31.2362L216.557 30.2311C214.146 29.7271 212.83 28.6484 212.83 27.2837C212.83 25.4151 214.658 24.2656 217.654 24.2656C221.015 24.2656 224.23 25.1999 228.029 27.3574L231.319 19.9536C227.885 17.5103 223.209 16.1427 218.019 16.1427C208.594 16.1427 202.455 20.8879 202.455 28.2917C202.455 34.1865 206.035 37.6378 213.636 39.1469L218.094 40.0812C221.09 40.7296 222.112 41.5903 222.112 43.3174C222.112 45.1861 219.994 46.2648 216.192 46.2648C213.049 46.2648 208.447 44.6113 204.573 42.0943L201.358 49.5717C204.645 52.5839 210.347 54.4555 216.339 54.5263Z" fill="#333333"/>
<path d="M231.528 52.0798C231.528 51.791 231.588 51.5375 231.708 51.3253C231.828 51.1101 231.999 50.9451 232.214 50.8301C232.433 50.7123 232.688 50.6562 232.981 50.6562C233.275 50.6562 233.533 50.7152 233.751 50.8301C233.97 50.948 234.138 51.1131 234.258 51.3253C234.378 51.5405 234.437 51.791 234.437 52.0798C234.437 52.3687 234.378 52.6221 234.258 52.8344C234.138 53.0495 233.967 53.2146 233.751 53.3295C233.536 53.4445 233.278 53.5034 232.981 53.5034C232.688 53.5034 232.43 53.4445 232.214 53.3295C231.999 53.2146 231.828 53.0466 231.708 52.8344C231.588 52.6221 231.528 52.3687 231.528 52.0798ZM232.984 53.247C233.359 53.247 233.647 53.1468 233.847 52.9464C234.048 52.7459 234.147 52.4571 234.147 52.0798C234.147 51.7026 234.045 51.4167 233.847 51.2133C233.647 51.0129 233.359 50.9127 232.984 50.9127C232.61 50.9127 232.322 51.0129 232.119 51.2163C231.915 51.4196 231.816 51.7085 231.816 52.0798C231.816 52.4512 231.918 52.74 232.119 52.9434C232.322 53.1468 232.61 53.247 232.984 53.247ZM232.52 52.7784V51.3725C232.607 51.3636 232.691 51.3607 232.766 51.3548C232.844 51.3518 232.906 51.3489 232.954 51.3489C233.356 51.3489 233.557 51.4963 233.557 51.7939C233.557 51.9885 233.464 52.124 233.275 52.2007L233.59 52.7754H233.353L233.077 52.2508C233.035 52.2537 232.99 52.2567 232.945 52.2567C232.862 52.2567 232.787 52.2537 232.721 52.2449V52.7754H232.52V52.7784ZM232.954 51.5375C232.871 51.5375 232.793 51.5405 232.724 51.5434V52.0621C232.793 52.071 232.865 52.0739 232.936 52.0739C233.209 52.0739 233.344 51.9826 233.344 51.7969C233.344 51.6996 233.314 51.6318 233.251 51.5935C233.191 51.5581 233.092 51.5375 232.954 51.5375Z" fill="#333333"/>
</svg>
