<svg width="453" height="263" fill="none" xmlns="http://www.w3.org/2000/svg">
  <path d="M378 179c0 85.604-64.448 72.5-149.5 72.5S70 264.604 70 179 138.948 24 224 24s154 69.396 154 155z" fill="url(#paint0_linear)"/>
  <path fill="url(#paint1_linear)" d="M0 178h453v85H0z"/>
  <path fill-rule="evenodd" clip-rule="evenodd" d="M99.118 95.643H87.834v84.14h11.284v-84.14zm24.137 4.203V72.428h25.091v107.355h-25.091v-.035l-20.369-.001v-61.57l20.369-18.33zm234.764-8.46h11.855v88.397h-11.855V91.387zM39 113.549l25.09 7.846v58.389H39v-66.235zm371.514 1.815H417v64.42h-20.186v-64.42h6.486v-6.433h7.214v6.433z" fill="#E9E9E9"/>
  <path d="M195.041 59.336V29.812L222.464 0v179.772h-24.227v11.855h-28.612v-11.855h-6.804V47.481h28.612v11.855h3.608zm-86.11 89.86h22.973v30.576h-22.973v-30.576z" fill="#E89F2C"/>
  <path fill-rule="evenodd" clip-rule="evenodd" d="M237.077 0h-14.705v179.772h14.705V0zm55.867 179.772h-31.093V28.565l31.093 30.424v120.783zM163.376 47.277h-8.605v132.291h8.605V47.277zM43.44 134.63h22.974v30.575H43.44v-30.575zm150.161 21.385h25.578v1.854h-25.578v-1.854zm102.558-7.007h4.718v7.755h-4.718v-7.755zm-102.558 2.404h25.578v1.855h-25.578v-1.855zm0-4.601h25.578v1.855h-25.578v-1.855zm0-4.045h25.578v1.855h-25.578v-1.855zm102.558-7.612h4.718v7.756h-4.718v-7.756zm8.199 0h4.718v7.756h-4.718v-7.756zm8.208 0h4.718v7.756h-4.718v-7.756zm8.203 0h4.718v7.756h-4.718v-7.756zm-127.168 3.01h25.578v1.854h-25.578v-1.854zm0-4.603h25.578v1.856h-25.578v-1.856zm0-4.602h25.578v1.856h-25.578v-1.856zm102.558-7.658h4.718v7.756h-4.718v-7.756zm8.199 0h4.718v7.756h-4.718v-7.756zm8.208 0h4.718v7.756h-4.718v-7.756zm8.203 0h4.718v7.756h-4.718v-7.756zm-127.168 3.057h25.578v1.855h-25.578v-1.855zm0-4.602h25.578v1.855h-25.578v-1.855zm0-4.601h25.578v1.855h-25.578v-1.855zm0-4.602h25.578v1.855h-25.578v-1.855zm0-4.602h25.578v1.855h-25.578v-1.855zm0-4.602h25.578v1.856h-25.578v-1.856zm0-4.6h25.578v1.853h-25.578V96.75zm0-4.603h25.578v1.855h-25.578v-1.855zm0-4.602h25.578V89.4h-25.578v-1.855zm0-4.601h25.578v1.854h-25.578v-1.854zm0-4.603h25.578v1.855h-25.578v-1.855z" fill="#F5DB7D"/>
  <path d="M245.069 28.56h16.672v151.206h-16.672V28.559z" fill="#FFEAB0"/>
  <path d="M66.75 179.764h21.042v-84.14L66.75 109.576v70.187zm325.189 0h-22.107V91.367l22.107 14.66v73.737z" fill="#C7C7C7"/>
  <path fill-rule="evenodd" clip-rule="evenodd" d="M127.061 144.608h17.746v1.518h-17.746v-1.518zm0-3.828h17.746v1.519h-17.746v-1.519zm0-3.826h17.746v1.517h-17.746v-1.517zm0-3.828h17.746v1.517h-17.746v-1.517zm0-3.828h17.746v1.519h-17.746v-1.519zm0-3.827h17.746v1.518h-17.746v-1.518zm0-3.828h17.746v1.519h-17.746v-1.519zm0-3.827h17.746v1.518h-17.746v-1.518zm0-3.828h17.746v1.518h-17.746v-1.518zm0-4.303h17.746v1.518h-17.746v-1.518zm0-3.828h17.746v1.519h-17.746v-1.519zm0-3.827h17.746v1.519h-17.746v-1.519zm0-3.827h17.746v1.517h-17.746v-1.517zm0-3.828h17.746v1.519h-17.746v-1.519zm0-3.827h17.746v1.518h-17.746v-1.518zm0-3.828h17.746v1.518h-17.746V86.72zm0-3.828h17.746v1.519h-17.746v-1.519zm0-3.827h17.746v1.518h-17.746v-1.518z" fill="#fff"/>
  <path fill="#F5DB7D" d="M292 116h46v65h-46z"/>
  <path d="M311.388 101.898l-18.614 15.512h37.228v62.359h21.539v-77.871h-40.153zm-168.1 32.182h-22.96l-11.486 15.113h22.959v30.576h22.973v-30.576l-11.486-15.113zm63.634-76.082l-17.855 14.88h35.71v106.891h20.66V57.998h-38.515zM77.886 119.513H54.927L43.44 134.627H66.4v39.356h22.973v-39.356l-11.487-15.114z" fill="#8D4C12"/>
  <path d="M402.617 126.543h-22.748l-11.381 14.976h22.747v38.996H414v-38.996l-11.383-14.976zM109.428 114.2h-22.75L80 122.5l4.5 6.675h13.546v38.997h22.763v-38.997L109.428 114.2z" fill="#142354"/>
  <path d="M337.32 152.397h55.473v1.662H337.32v-1.662z" fill="#007EFF"/>
  <path d="M392.803 152.397h5.856v1.662h-5.856v-1.662z" fill="#C1F3FB"/>
  <path fill-rule="evenodd" clip-rule="evenodd" d="M312.231 138.214h11.493l13.923 15.839v26.584h-11.271v-26.584l-14.145-15.839zm80.775 15.839h5.863v26.584h-5.863v-26.584zm-100.668 0h5.857v26.584h-5.857v-26.584z" fill="#2723D7"/>
  <path d="M236.864 152.397h55.474v1.662h-55.474v-1.662z" fill="#007EFF"/>
  <path d="M292.347 152.397h5.856v1.662h-5.856v-1.662z" fill="#C1F3FB"/>
  <path d="M318.385 180.653h-11.382V169.16a5.116 5.116 0 015.11-5.122h1.161a5.116 5.116 0 015.111 5.122v11.493z" fill="#DBF8FD"/>
  <path d="M137.622 122.472V112.01" stroke="#467C58" stroke-width=".002" stroke-miterlimit="10"/>
  <path d="M138.082 112h7.973v4.11h-7.973V112z" fill="#00FAC7"/>
  <path d="M102.577 140.093h40.911v32.161h-40.911v-32.161z" fill="#B0FDE9"/>
  <path fill-rule="evenodd" clip-rule="evenodd" d="M94.156 154.197h-.001l-27.658-9.887 10.041-.028 26.107 9.887v18.089h40.838v-30.757h-40.91v-2.808h56.042v36.374h-55.97v2.809h60.597v2.808H94.156v-26.487zm128.204-.002h.005V180.684h-8.489v-26.486h-.001l-27.657-9.888h10.041l26.101 9.885zm139.423-38.735h-22.75l-11.382 14.977h22.75v30.296h22.764v-30.296l-11.382-14.977zm-238.754 3.57l20.456 19.663h15.132l-18.215-19.663h-17.373z" fill="#007E52"/>
  <path fill-rule="evenodd" clip-rule="evenodd" d="M213.96 154.199h.037v26.491h-55.278v-2.809h-59.53v-2.809h59.53v-20.873h.256l27.361-9.883 27.624 9.883zm-119.722 0h.036v26.491H39v-26.491h.253l27.364-9.883 27.62 9.883zm43.202-12.692h6.166v30.756h-6.166v-30.756zm-17.376 0h6.167v30.756h-6.167v-30.756zm-17.372 0h6.163v30.756h-6.163v-30.756zm225.077-11.067h22.764v49.254h-22.764V130.44zm-225.073 8.262l20.45-19.667 20.46 19.659-40.91.008z" fill="#00FAC7"/>
  <path fill-rule="evenodd" clip-rule="evenodd" d="M391.318 154.074h1.505v26.584h-55.47v-26.584h31.2v-12.545h22.765v12.545zm-99.161 0h-55.474v26.584h55.474v-26.584zm34.035 0h-28.288v26.584h28.288v-26.584zm-236.544-4.827v-13.393l-5.187-6.668h13.666v23.274l-8.48-3.213zm208.256 4.827h28.288l-14.144-15.839-14.144 15.839z" fill="#00E7FF"/>
  <path d="M388.422 174.119h-4.314a.44.44 0 01-.44-.444v-5.87a.44.44 0 01.44-.444h4.314c.237 0 .44.2.44.444v5.87a.447.447 0 01-.44.444zm-190.22-.073h-2.094a.563.563 0 01-.56-.562v-3.36c0-.309.252-.562.56-.562h2.094c.309 0 .56.253.56.562v3.36a.562.562 0 01-.56.562zm-5.497 0h-2.094a.563.563 0 01-.561-.562v-3.36c0-.309.252-.562.561-.562h2.094c.308 0 .56.253.56.562v3.36a.563.563 0 01-.56.562zm10.995 0h-2.094a.563.563 0 01-.56-.562v-3.36c0-.309.252-.562.56-.562h2.094c.308 0 .561.253.561.562v3.36a.564.564 0 01-.561.562zm-5.498-5.715h-2.094a.563.563 0 01-.56-.561v-3.36c0-.309.252-.562.56-.562h2.094c.309 0 .56.253.56.562v3.36a.562.562 0 01-.56.561zm-5.497 0h-2.094a.563.563 0 01-.561-.561v-3.36c0-.309.252-.562.561-.562h2.094c.308 0 .56.253.56.562v3.36a.563.563 0 01-.56.561zm10.995 0h-2.094a.563.563 0 01-.56-.561v-3.36c0-.309.252-.562.56-.562h2.094c.308 0 .561.253.561.562v3.36a.563.563 0 01-.561.561zm5.498 0h-2.094a.563.563 0 01-.561-.561v-3.36c0-.309.253-.562.561-.562h2.094c.308 0 .56.253.56.562v3.36a.563.563 0 01-.56.561zm179.224-3.517h-4.314a.44.44 0 01-.44-.442v-5.871a.44.44 0 01.44-.444h4.314c.237 0 .44.2.44.444v5.871a.446.446 0 01-.44.442zm-190.22-2.197h-2.094a.563.563 0 01-.56-.562v-3.36c0-.309.252-.561.56-.561h2.094c.309 0 .56.252.56.561v3.36a.562.562 0 01-.56.562zm-5.497 0h-2.094a.563.563 0 01-.561-.562v-3.36c0-.309.252-.561.561-.561h2.094c.308 0 .56.252.56.561v3.36a.563.563 0 01-.56.562zm10.995 0h-2.094a.563.563 0 01-.56-.562v-3.36c0-.309.252-.561.56-.561h2.094c.308 0 .561.252.561.561v3.36a.564.564 0 01-.561.562zm5.498 0h-2.094a.564.564 0 01-.561-.562v-3.36c0-.309.253-.561.561-.561h2.094c.308 0 .56.252.56.561v3.36a.563.563 0 01-.56.562zM318.442 180.653h-11.381v-11.492a5.117 5.117 0 015.11-5.123h1.16a5.117 5.117 0 015.111 5.123v11.492zm-39.121-6.425h-4.309a.443.443 0 01-.442-.443v-5.869c0-.245.199-.444.442-.444h4.309c.244 0 .443.199.443.444v5.869a.443.443 0 01-.443.443zm100.675 0h-4.314a.44.44 0 01-.44-.443v-5.869a.44.44 0 01.44-.444h4.314c.238 0 .44.199.44.444v5.869a.445.445 0 01-.44.443zm-8.623 0h-4.309a.443.443 0 01-.442-.443v-5.869c0-.245.199-.444.442-.444h4.309c.244 0 .442.199.442.444v5.869a.442.442 0 01-.442.443zm-100.67 0h-4.31a.443.443 0 01-.441-.443v-5.869c0-.245.199-.444.441-.444h4.31c.244 0 .442.199.442.444v5.869a.442.442 0 01-.442.443zm92.051-.11h-4.309a.445.445 0 01-.443-.444v-5.87c0-.244.2-.443.443-.443h4.309c.243 0 .442.199.442.443v5.87a.444.444 0 01-.442.444zm-8.618 0h-4.31a.444.444 0 01-.442-.444v-5.87c0-.244.199-.443.442-.443h4.31c.243 0 .442.199.442.443v5.87a.444.444 0 01-.442.444zm-8.619 0h-4.31a.444.444 0 01-.442-.444v-5.87c0-.244.199-.443.442-.443h4.31c.243 0 .442.199.442.443v5.87a.444.444 0 01-.442.444zm-92.051 0h-4.31a.444.444 0 01-.442-.444v-5.87c0-.244.199-.443.442-.443h4.31c.243 0 .442.199.442.443v5.87a.444.444 0 01-.442.444zm34.475 0h-4.31a.444.444 0 01-.442-.444v-5.87c0-.244.199-.443.442-.443h4.31c.243 0 .442.199.442.443v5.87a.444.444 0 01-.442.444zm-25.857 0h-4.31a.445.445 0 01-.442-.444v-5.87c0-.244.2-.443.442-.443h4.31c.244 0 .442.199.442.443v5.87a.444.444 0 01-.442.444zm-17.237 0h-4.31a.444.444 0 01-.442-.444v-5.87c0-.244.199-.443.442-.443h4.31c.243 0 .442.199.442.443v5.87a.444.444 0 01-.442.444zm-166.173-.073h-2.095a.563.563 0 01-.56-.562v-3.36c0-.308.252-.562.56-.562h2.095c.308 0 .56.254.56.562v3.36a.563.563 0 01-.56.562zm108.726 0h-2.094a.563.563 0 01-.561-.562v-3.36c0-.308.252-.562.561-.562h2.094c.307 0 .56.254.56.562v3.36a.563.563 0 01-.56.562zm-125.22 0h-2.093a.563.563 0 01-.56-.562v-3.36c0-.308.251-.562.56-.562h2.093c.309 0 .56.254.56.562v3.36a.563.563 0 01-.56.562zm-16.494 0h-2.093a.563.563 0 01-.56-.562v-3.36c0-.308.252-.562.56-.562h2.093c.31 0 .561.254.561.562v3.36a.563.563 0 01-.56.562zm10.997 0h-2.095a.563.563 0 01-.56-.562v-3.36c0-.308.252-.562.56-.562h2.095c.308 0 .56.254.56.562v3.36a.562.562 0 01-.56.562zm10.995 0h-2.094a.563.563 0 01-.56-.562v-3.36c0-.308.252-.562.56-.562h2.094c.308 0 .561.254.561.562v3.36a.563.563 0 01-.56.562zm5.498 0h-2.094a.563.563 0 01-.56-.562v-3.36c0-.308.251-.562.56-.562h2.094c.308 0 .56.254.56.562v3.36a.563.563 0 01-.56.562zm10.996 0h-2.094a.563.563 0 01-.56-.562v-3.36c0-.308.252-.562.56-.562h2.094c.307 0 .56.254.56.562v3.36a.563.563 0 01-.56.562zm5.498 0h-2.094a.563.563 0 01-.561-.562v-3.36c0-.308.252-.562.56-.562h2.095c.308 0 .56.254.56.562v3.36a.563.563 0 01-.56.562zm-38.485 0h-2.094a.563.563 0 01-.561-.562v-3.36c0-.308.253-.562.56-.562h2.095c.307 0 .56.254.56.562v3.36a.563.563 0 01-.56.562zm114.223 0h-2.094a.563.563 0 01-.56-.562v-3.36c0-.308.252-.562.56-.562h2.094c.308 0 .561.254.561.562v3.36a.564.564 0 01-.561.562zm5.498 0h-2.095a.562.562 0 01-.559-.562v-3.36c0-.308.251-.562.559-.562h2.095c.308 0 .561.254.561.562v3.36a.564.564 0 01-.561.562zm5.498 0h-2.095a.563.563 0 01-.56-.562v-3.36c0-.308.253-.562.56-.562h2.095c.308 0 .56.254.56.562v3.36a.563.563 0 01-.56.562zm5.497 0h-2.093a.563.563 0 01-.561-.562v-3.36c0-.308.252-.562.561-.562h2.093c.308 0 .561.254.561.562v3.36a.564.564 0 01-.561.562zm-119.72-5.715h-2.094a.563.563 0 01-.56-.561v-3.36c0-.309.251-.562.56-.562h2.093c.309 0 .56.253.56.562v3.36a.562.562 0 01-.56.561zm-5.498 0h-2.095a.563.563 0 01-.56-.561v-3.36c0-.309.252-.562.56-.562h2.095c.308 0 .56.253.56.562v3.36a.562.562 0 01-.56.561zm32.987 0h-2.094a.563.563 0 01-.561-.561v-3.36c0-.309.252-.562.56-.562h2.095c.308 0 .56.253.56.562v3.36a.562.562 0 01-.56.561zm-5.498 0h-2.094a.563.563 0 01-.56-.561v-3.36c0-.309.252-.562.56-.562h2.094c.307 0 .56.253.56.562v3.36a.563.563 0 01-.56.561zm-5.498 0h-2.095a.562.562 0 01-.56-.561v-3.36c0-.309.252-.562.56-.562h2.095c.308 0 .56.253.56.562v3.36a.563.563 0 01-.56.561zm103.227 0h-2.093a.563.563 0 01-.561-.561v-3.36c0-.309.252-.562.561-.562h2.093c.308 0 .561.253.561.562v3.36a.563.563 0 01-.561.561zm-114.223 0h-2.094a.562.562 0 01-.56-.561v-3.36c0-.309.252-.562.56-.562h2.094c.308 0 .561.253.561.562v3.36a.563.563 0 01-.56.561zm-21.992 0h-2.093a.563.563 0 01-.56-.561v-3.36c0-.309.252-.562.56-.562h2.093c.31 0 .561.253.561.562v3.36a.563.563 0 01-.56.561zm5.499 0h-2.094a.563.563 0 01-.561-.561v-3.36c0-.309.253-.562.56-.562h2.095c.307 0 .56.253.56.562v3.36a.563.563 0 01-.56.561zm136.215 0h-2.094a.563.563 0 01-.561-.561v-3.36c0-.309.252-.562.561-.562h2.094c.307 0 .56.253.56.562v3.36a.563.563 0 01-.56.561zm-10.996 0h-2.095a.563.563 0 01-.56-.561v-3.36c0-.309.253-.562.56-.562h2.095c.308 0 .56.253.56.562v3.36a.563.563 0 01-.56.561zm-10.996 0h-2.094a.563.563 0 01-.56-.561v-3.36c0-.309.252-.562.56-.562h2.094c.308 0 .561.253.561.562v3.36a.563.563 0 01-.561.561zm5.498 0h-2.095a.562.562 0 01-.559-.561v-3.36c0-.309.251-.562.559-.562h2.095c.308 0 .561.253.561.562v3.36a.563.563 0 01-.561.561zm-97.73 0h-2.094a.562.562 0 01-.56-.561v-3.36c0-.309.251-.562.56-.562h2.094c.308 0 .56.253.56.562v3.36a.563.563 0 01-.56.561zm73.383-7.438h3.643v6.601h-3.643v-6.601zm5.609 0h3.643v6.601h-3.643v-6.601zm227.828 4.032h-4.314a.44.44 0 01-.44-.443v-5.871a.44.44 0 01.44-.443h4.314c.238 0 .44.2.44.443v5.871a.445.445 0 01-.44.443zm-8.623 0h-4.309a.444.444 0 01-.442-.443v-5.871c0-.243.199-.443.442-.443h4.309c.244 0 .442.2.442.443v5.871a.443.443 0 01-.442.443zm-100.67 0h-4.31a.443.443 0 01-.441-.443v-5.871c0-.243.199-.443.441-.443h4.31c.244 0 .442.2.442.443v5.871a.443.443 0 01-.442.443zm8.618 0h-4.309a.444.444 0 01-.442-.443v-5.871c0-.243.199-.443.442-.443h4.309c.244 0 .443.2.443.443v5.871a.444.444 0 01-.443.443zm66.196-.111h-4.31a.443.443 0 01-.442-.442V158.5c0-.244.199-.444.442-.444h4.31c.243 0 .442.2.442.444v5.871a.443.443 0 01-.442.442zm8.619 0h-4.31a.443.443 0 01-.442-.442V158.5c0-.244.199-.444.442-.444h4.31c.243 0 .442.2.442.444v5.871a.443.443 0 01-.442.442zm8.618 0h-4.309a.444.444 0 01-.443-.442V158.5c0-.244.2-.444.443-.444h4.309c.243 0 .442.2.442.444v5.871a.443.443 0 01-.442.442zm-117.907 0h-4.31a.443.443 0 01-.442-.442V158.5c0-.244.199-.444.442-.444h4.31c.243 0 .442.2.442.444v5.871a.443.443 0 01-.442.442zm8.619 0h-4.31a.443.443 0 01-.442-.442V158.5c0-.244.199-.444.442-.444h4.31c.243 0 .442.2.442.444v5.871a.443.443 0 01-.442.442zm8.618 0h-4.31a.444.444 0 01-.442-.442V158.5c0-.244.2-.444.442-.444h4.31c.244 0 .442.2.442.444v5.871a.443.443 0 01-.442.442zm25.857 0h-4.31a.443.443 0 01-.442-.442V158.5c0-.244.199-.444.442-.444h4.31c.243 0 .442.2.442.444v5.871a.443.443 0 01-.442.442zm34.9-1.496h-21.514a.565.565 0 01-.562-.564v-1.832c0-.31.253-.564.562-.564h21.514c.309 0 .562.254.562.564v1.832c0 .31-.253.564-.562.564zm-135.441-.701h-2.094a.563.563 0 01-.561-.561v-3.361c0-.309.252-.561.561-.561h2.094c.307 0 .56.252.56.561v3.361a.563.563 0 01-.56.561zm-97.73 0h-2.094a.563.563 0 01-.561-.561v-3.361c0-.309.252-.561.56-.561h2.095c.308 0 .56.252.56.561v3.361a.562.562 0 01-.56.561zm92.231 0h-2.093a.563.563 0 01-.561-.561v-3.361c0-.309.252-.561.561-.561h2.093c.308 0 .561.252.561.561v3.361a.563.563 0 01-.561.561zm-5.497 0h-2.095a.563.563 0 01-.56-.561v-3.361c0-.309.253-.561.56-.561h2.095c.308 0 .56.252.56.561v3.361a.563.563 0 01-.56.561zm-5.498 0h-2.095a.562.562 0 01-.559-.561v-3.361c0-.309.251-.561.559-.561h2.095c.308 0 .561.252.561.561v3.361a.563.563 0 01-.561.561zm-5.498 0h-2.094a.563.563 0 01-.56-.561v-3.361c0-.309.252-.561.56-.561h2.094c.308 0 .561.252.561.561v3.361a.563.563 0 01-.561.561zm-103.227 0h-2.094a.563.563 0 01-.56-.561v-3.361c0-.309.251-.561.56-.561h2.093c.309 0 .56.252.56.561v3.361a.562.562 0 01-.56.561zm21.991 0h-2.094a.563.563 0 01-.56-.561v-3.361c0-.309.252-.561.56-.561h2.094c.307 0 .56.252.56.561v3.361a.563.563 0 01-.56.561zm-32.987 0h-2.094a.563.563 0 01-.561-.561v-3.361c0-.309.253-.561.56-.561h2.095c.307 0 .56.252.56.561v3.361a.563.563 0 01-.56.561zm27.489 0h-2.095a.562.562 0 01-.56-.561v-3.361c0-.309.252-.561.56-.561h2.095c.308 0 .56.252.56.561v3.361a.563.563 0 01-.56.561zm-5.498 0h-2.094a.562.562 0 01-.56-.561v-3.361c0-.309.251-.561.56-.561h2.094c.308 0 .56.252.56.561v3.361a.563.563 0 01-.56.561zm-5.498 0h-2.094a.562.562 0 01-.56-.561v-3.361c0-.309.252-.561.56-.561h2.094c.308 0 .561.252.561.561v3.361a.563.563 0 01-.56.561zm-10.995 0h-2.095a.563.563 0 01-.56-.561v-3.361c0-.309.252-.561.56-.561h2.095c.308 0 .56.252.56.561v3.361a.562.562 0 01-.56.561zm-10.997 0h-2.093a.563.563 0 01-.56-.561v-3.361c0-.309.252-.561.56-.561h2.093c.31 0 .561.252.561.561v3.361a.563.563 0 01-.56.561zm100.873-9.729h3.643v6.601h-3.643v-6.601zm5.609 0h3.643v6.601h-3.643v-6.601zm166.274 6.056h-11.381v-4.514a5.117 5.117 0 015.11-5.123h1.16a5.117 5.117 0 015.111 5.123v4.514zm-166.274-14.061h3.643v6.601h-3.643v-6.601zm-5.609 0h3.643v6.601h-3.643v-6.601z" fill="#fff"/>
  <path fill-rule="evenodd" clip-rule="evenodd" d="M133.956 137.284h-21.437a.562.562 0 01-.56-.561v-1.826c0-.309.252-.562.56-.562h21.437c.308 0 .56.253.56.562v1.826a.562.562 0 01-.56.561zm-7.846-8.426a2.945 2.945 0 01-2.943 2.949 2.946 2.946 0 01-2.943-2.949 2.946 2.946 0 012.943-2.949 2.945 2.945 0 012.943 2.949z" fill="#007E52"/>
  <g clip-path="url(#clip0)">
    <path d="M251.798 186.184l-.004 1.044c-.005 1.146-.665-.156-1.706-.103l-.106.504c-.118.006-.108-.592-.107-.711l-.166-2.938c1.155-.059 2.094.932 2.089 2.204" fill="#FCB31F"/>
    <path fill-rule="evenodd" clip-rule="evenodd" d="M217.781 149.779l-2.723 1.719.786 1.26 2.725-1.718-.788-1.261z" fill="#017D56"/>
    <path fill-rule="evenodd" clip-rule="evenodd" d="M240.058 141.436h-23.743v36.166h23.743v-36.166z" fill="#FFB600"/>
    <path fill-rule="evenodd" clip-rule="evenodd" d="M222.625 175.694s-.294 11.337.604 25.983l4.061-.251c-.888-14.445-.598-25.626-.598-25.626l-4.065-.106h-.002z" fill="#F99F1C"/>
    <path d="M222.295 199.765h1.683c1.013 0 1.834.827 1.834 1.85h-5.351c0-1.023.821-1.851 1.834-1.851" fill="#F99F1C"/>
    <path fill-rule="evenodd" clip-rule="evenodd" d="M228.314 176.601s2.18 10.8 4.36 25.257l4.02-.613c-2.198-14.571-4.396-25.457-4.396-25.457l-3.986.813h.002z" fill="#F99F1C"/>
    <path d="M237.65 199.765h-1.683a1.841 1.841 0 00-1.834 1.85h5.351a1.842 1.842 0 00-1.834-1.851" fill="#F99F1C"/>
    <path d="M222.87 152.345a2.358 2.358 0 01-2.348 2.366 2.332 2.332 0 01-1.661-.695 2.373 2.373 0 01-.686-1.673 2.355 2.355 0 012.347-2.364 2.357 2.357 0 012.348 2.366" fill="#fff"/>
    <path d="M219.01 150.914a1.29 1.29 0 00-.404.066 2.371 2.371 0 00-.203 2.382 1.282 1.282 0 001.131.037 1.29 1.29 0 00.726-.871 1.309 1.309 0 00-.233-1.113 1.314 1.314 0 00-.45-.368 1.275 1.275 0 00-.565-.133" fill="#000"/>
    <path fill-rule="evenodd" clip-rule="evenodd" d="M223.61 152.345c0-.824-.325-1.614-.904-2.197a3.08 3.08 0 00-2.183-.913c-.821 0-1.607.328-2.187.911a3.118 3.118 0 000 4.398c.58.583 1.366.911 2.187.911a3.09 3.09 0 002.184-.913 3.119 3.119 0 00.903-2.199v.002zm-1.48 0c0 .895-.72 1.622-1.607 1.622a1.617 1.617 0 01-1.608-1.624c0-.894.72-1.62 1.608-1.62.887 0 1.607.728 1.607 1.622z" fill="#017D56"/>
    <path d="M229.334 152.345a2.358 2.358 0 01-2.347 2.366 2.34 2.34 0 01-2.17-1.463 2.358 2.358 0 01-.177-.905 2.355 2.355 0 012.347-2.364 2.357 2.357 0 012.347 2.366" fill="#fff"/>
    <path d="M225.475 150.914a1.27 1.27 0 00-.406.066 2.371 2.371 0 00-.203 2.382 1.282 1.282 0 001.131.037 1.298 1.298 0 00.737-1.455 1.32 1.32 0 00-.244-.529 1.314 1.314 0 00-.45-.368 1.275 1.275 0 00-.565-.133z" fill="#000"/>
    <path fill-rule="evenodd" clip-rule="evenodd" d="M230.074 152.345a3.112 3.112 0 00-.903-2.197 3.083 3.083 0 00-2.184-.913 3.083 3.083 0 00-2.183.913 3.117 3.117 0 00-.904 2.197c0 1.715 1.383 3.11 3.087 3.11a3.09 3.09 0 002.185-.913 3.118 3.118 0 00.902-2.199v.002zm-1.479 0c0 .895-.72 1.622-1.608 1.622a1.617 1.617 0 01-1.609-1.624c0-.894.72-1.62 1.609-1.62.888 0 1.608.728 1.608 1.622z" fill="#017D56"/>
    <path fill-rule="evenodd" clip-rule="evenodd" d="M240.058 169.292h-23.743v8.31h23.743v-8.31z" fill="#FFDC79"/>
    <path fill-rule="evenodd" clip-rule="evenodd" d="M216.315 171.083h23.743v-1.859h-23.743v1.859z" fill="#F99F1C"/>
    <path fill-rule="evenodd" clip-rule="evenodd" d="M216.315 172.41h23.743v-1.859h-23.743v1.859z" fill="#F99F1C"/>
    <path fill-rule="evenodd" clip-rule="evenodd" d="M216.315 173.735h23.743v-1.858h-23.743v1.859-.001z" fill="#F99F1C"/>
    <path fill-rule="evenodd" clip-rule="evenodd" d="M216.315 175.062h23.743v-1.859h-23.743v1.859z" fill="#F99F1C"/>
    <path fill-rule="evenodd" clip-rule="evenodd" d="M216.315 176.389h23.743v-1.859h-23.743v1.859z" fill="#F99F1C"/>
    <path fill-rule="evenodd" clip-rule="evenodd" d="M216.315 177.715h23.743v-1.859h-23.743v1.859z" fill="#F99F1C"/>
    <path fill-rule="evenodd" clip-rule="evenodd" d="M222.869 153.088h1.771v-1.487h-1.771v1.487zm11.086-1.704l5.939-3.343.723 1.297-6.277 3.533h-5.005v-1.487h4.62zm-15.78 0h-2.826v1.487h2.826v-1.487z" fill="#017D56"/>
    <path fill-rule="evenodd" clip-rule="evenodd" d="M222.477 158.296s3.961.324 6.094-1.275l-.885-1.193c-.687.516-1.615.762-2.476.891-1.373.206-2.599.094-2.599.094l-.134 1.483zm3.136-9.038s1.804.305 3.205.61l.313-1.452c-1.43-.311-3.273-.623-3.273-.623l-.245 1.465zm-6.817.733s1.572-.628 2.354-.562l.126-1.481c-.993-.086-3.004.653-3.004.653l.524 1.39z" fill="#000"/>
    <path d="M225.66 163.856c.329 0 .329-.513 0-.513-.328 0-.328.513 0 .513z" fill="#FCB31F"/>
    <path fill-rule="evenodd" clip-rule="evenodd" d="M249.815 179.218s-.634-9.331-9.216-22.501l-3.069 2.022c7.933 12.171 8.624 20.752 8.624 20.752l3.661-.273z" fill="#ECB335"/>
    <path d="M212.185 181.045l-.097.703c-.105.772.61 1.451 1.599 1.516l.204.015.498-3.658c-1.096-.072-2.088.568-2.204 1.424" fill="#FCB31F"/>
    <path fill-rule="evenodd" clip-rule="evenodd" d="M215.364 180.725l3.543-21.323c.05-.411-.06-.826-.307-1.158a1.597 1.597 0 00-2.847.628l-3.541 21.323a1.613 1.613 0 001.325 1.782 1.596 1.596 0 001.828-1.252h-.001z" fill="#FFB600"/>
    <path d="M239.735 138.543c0 2.398-1.93 4.342-4.309 4.342a4.29 4.29 0 01-3.048-1.273 4.334 4.334 0 01-1.26-3.067c0-2.398 1.929-4.342 4.308-4.342a4.303 4.303 0 013.049 1.273 4.369 4.369 0 011.26 3.067z" fill="#FFB600"/>
    <path fill-rule="evenodd" clip-rule="evenodd" d="M218.167 161.548a4.079 4.079 0 00-2.33-5.254 4.038 4.038 0 00-3.096.083 4.059 4.059 0 00-2.13 2.26 4.087 4.087 0 00.083 3.112 4.052 4.052 0 002.247 2.142 4.029 4.029 0 003.096-.083 4.062 4.062 0 002.13-2.26zm-3.176-1.222a.646.646 0 01-.582.418.634.634 0 01-.608-.386.659.659 0 01.325-.862.646.646 0 01.492-.015.65.65 0 01.373.845z" fill="#00D384"/>
    <path d="M218.189 172.208h-7.6a2.229 2.229 0 01-2.221-2.239v-8.323c0-1.236.993-2.238 2.221-2.238h7.6a2.23 2.23 0 012.221 2.238v8.323a2.23 2.23 0 01-2.221 2.239z" fill="#00D384"/>
    <path fill-rule="evenodd" clip-rule="evenodd" d="M220.41 164.222h-12.042v1.707h12.042v-1.707zm-3.92 2.926h-4.31v1.709h4.31v-1.709z" fill="#007E52"/>
    <path fill-rule="evenodd" clip-rule="evenodd" d="M215.721 159.408v11.294h3.398v-11.294H215.721zm-6.168 0v11.294h3.396v-11.294h-3.396z" fill="#00FAC7"/>
    <path fill-rule="evenodd" clip-rule="evenodd" d="M209.682 164.906v3.042h3.02v-3.042h-3.02zm1.358 1.366v.308h.302v-.308h-.302zm4.869-1.366v3.042h3.02v-3.042h-3.02zm1.358 1.366v.308h.302v-.308h-.302z" fill="#FFDD72"/>
    <path fill-rule="evenodd" clip-rule="evenodd" d="M212.179 168.191h4.311v2.511h-4.31l-.001-2.511z" fill="#00FAC7"/>
    <path d="M251.798 186.689a1.64 1.64 0 01-1.635 1.695 1.628 1.628 0 01-1.175-.499 1.655 1.655 0 01-.461-1.196c0-.91.732-1.648 1.635-1.648.904 0 1.636.738 1.636 1.648z" fill="#FCB31F"/>
    <path fill-rule="evenodd" clip-rule="evenodd" d="M242.559 173.513c.72 1.425 1.686 3.349 2.518 5.034 1.875 3.793 3.55 8.174 3.476 12.05l-5.469-.106c.051-2.701-1.103-5.679-2.377-8.399-1.466-3.132-3.146-5.946-3.952-7.773-.879-1.991-.725-3.529-.352-4.268.249-.496.687-1.036 1.452-1.44.518-.273 1.401-.54 2.556-.69 4.35-.562 14.205.037 14.205.037l-.34 5.488-11.717.067z" fill="#1A2453"/>
    <path d="M241.831 188.14h2.263a2.478 2.478 0 012.468 2.487h-7.199a2.479 2.479 0 012.468-2.488" fill="#1A2453"/>
    <path d="M256.992 138.651l26.896 28.095-37.591 9.424 10.695-37.519z" fill="#477CFB"/>
    <path fill-rule="evenodd" clip-rule="evenodd" d="M246.844 172.709c1.004 3.205 4.07 13.267 4.408 17.644l-4.858.379c-.353-4.563-3.594-13.279-4.46-17.073-.284-1.245-.311-2.175-.221-2.655a2.78 2.78 0 01.589-1.274c.426-.516 1.067-.996 1.943-1.35 1.198-.482 3.031-.769 5.152-.856 6.132-.249 14.978.996 14.978.996l-.68 4.85s-8.328-1.183-14.102-.95c-1.034.041-1.977.126-2.749.289z" fill="#1A2453"/>
    <path d="M244.838 188.14h2.262a2.478 2.478 0 012.468 2.487h-7.198a2.479 2.479 0 012.468-2.488" fill="#1A2453"/>
    <path fill-rule="evenodd" clip-rule="evenodd" d="M251.918 183.164h7.416v-4.998h-7.416v4.999-.001z" fill="#017D56"/>
    <path fill-rule="evenodd" clip-rule="evenodd" d="M288.676 157.511l-3.921 14.94-4.808-1.275 4.897-18.664h14.103v5h-10.271v-.001z" fill="#467C58"/>
    <path fill-rule="evenodd" clip-rule="evenodd" d="M253.746 179.049v14.203h-4.974V174.05h11.938v4.999h-6.964z" fill="#017D56"/>
    <path d="M288.34 182.977c0 9.121-7.336 16.517-16.387 16.517-9.052 0-16.39-7.394-16.39-16.517 0-9.121 7.337-16.515 16.39-16.515 9.049 0 16.387 7.394 16.387 16.515z" fill="#00D384"/>
    <path fill-rule="evenodd" clip-rule="evenodd" d="M251.918 190.763h-10.809v2.489h10.809v-2.489z" fill="#77D18A"/>
    <path d="M256.475 156.57a3.196 3.196 0 01-.923 2.248 3.15 3.15 0 01-2.233.935 3.162 3.162 0 01-2.918-1.966 3.215 3.215 0 01-.239-1.217c0-1.756 1.413-3.181 3.155-3.181 1.745 0 3.158 1.425 3.158 3.181zm8.075-2.489c0 .842-.332 1.65-.924 2.246a3.153 3.153 0 01-2.231.934 3.175 3.175 0 01-3.158-3.181c0-1.758 1.413-3.181 3.156-3.181 1.744 0 3.157 1.423 3.157 3.181" fill="#fff"/>
    <path d="M261.14 153.981a1.43 1.43 0 01-.413 1.005 1.402 1.402 0 01-1.54.31 1.412 1.412 0 01-.766-.768 1.428 1.428 0 01.304-1.549 1.414 1.414 0 011-.418 1.413 1.413 0 011.415 1.42zm-7.815 1.949a1.424 1.424 0 01-.871 1.313 1.41 1.41 0 01-1.847-.767 1.425 1.425 0 01.305-1.548 1.405 1.405 0 011.998-.002c.265.266.415.627.415 1.004zm5.067 5.921a4.306 4.306 0 01-1.476-.277c-.278-.111-.512-.466-.401-.747.11-.279.449-.425.747-.401a4.22 4.22 0 002.945-.897c.237-.185.478-.355.74-.206.259.15.286.596.137.859-.752 1.336-1.686 1.669-2.692 1.669" fill="#000"/>
    <path d="M261.084 160.182a.66.66 0 00.05-.112 2.253 2.253 0 00-.37-.031c-1.067 0-1.932.755-1.932 1.686l.005.101c.836-.098 1.607-.507 2.249-1.644" fill="#3F4DA0"/>
    <path fill-rule="evenodd" clip-rule="evenodd" d="M178.546 142.228H155.68v38.014h22.866v-38.014z" fill="#477CFB"/>
    <path d="M158.503 150.49a2.814 2.814 0 01-1.309 1.704 2.792 2.792 0 01-2.123.274 2.813 2.813 0 01-1.694-1.315 2.824 2.824 0 011.036-3.838 2.774 2.774 0 012.123-.274c.354.096.686.262.977.488.29.226.534.507.717.827a2.836 2.836 0 01.273 2.134zm7.475-.247a2.806 2.806 0 01-2.343 2.053 2.774 2.774 0 01-1.088-.076 2.775 2.775 0 01-1.694-1.315 2.813 2.813 0 01-.273-2.134 2.796 2.796 0 013.431-1.978 2.799 2.799 0 011.694 1.316 2.813 2.813 0 01.273 2.134z" fill="#fff"/>
    <path d="M156.364 150.196a1.666 1.666 0 01-.291.589 1.666 1.666 0 01-1.114.643 1.678 1.678 0 01-1.879-1.459 1.688 1.688 0 01.83-1.679 1.673 1.673 0 012.291.625c.221.388.28.849.163 1.281zm7.474-.248a1.679 1.679 0 01-2.058 1.187 1.682 1.682 0 01-1.016-.789 1.687 1.687 0 01.621-2.302 1.667 1.667 0 011.273-.165c.43.117.795.401 1.017.789.221.388.28.849.163 1.28" fill="#000"/>
    <path fill-rule="evenodd" clip-rule="evenodd" d="M157.063 157.811s4.565-.056 6.979-.956l-.495-1.344c-2.246.839-6.497.868-6.497.868l.013 1.432z" fill="#000"/>
    <path fill-rule="evenodd" clip-rule="evenodd" d="M145.274 164.674c1.047 2.715 4.373 5.937 8.58 7.686 4.224 1.755 9.193 2.027 13.246-.554 3.296-2.101 6.165-6.182 7.178-13.483a3.037 3.037 0 00-.605-2.203 2.995 2.995 0 00-4.168-.584 3.026 3.026 0 00-1.182 1.952c-.678 4.887-2.234 7.807-4.441 9.212-2.364 1.506-5.268 1.097-7.732.075-2.482-1.032-4.654-2.687-5.273-4.288a3.015 3.015 0 00-1.598-1.606 2.987 2.987 0 00-2.26-.034 3.016 3.016 0 00-1.645 1.559 3.034 3.034 0 00-.1 2.27v-.002z" fill="#2723D7"/>
    <path d="M148.664 160.741l.537.937a2.461 2.461 0 01-.891 3.348l-.241.14-3.182-5.556.241-.14c1.163-.677 2.864.099 3.536 1.271z" fill="#2723D7"/>
    <path fill-rule="evenodd" clip-rule="evenodd" d="M135.464 158.828l9.51 17.039a6.394 6.394 0 003.839 3.037 6.354 6.354 0 004.851-.58 6.416 6.416 0 003.02-3.86 6.453 6.453 0 00-.577-4.876l-9.51-17.04a6.388 6.388 0 00-3.84-3.036 6.35 6.35 0 00-4.851.581 6.413 6.413 0 00-3.019 3.859 6.447 6.447 0 00.577 4.876z" fill="#424242"/>
    <path fill-rule="evenodd" clip-rule="evenodd" d="M155.546 140.483h23.235v2.358h-23.235v-2.358z" fill="#93E5FE"/>
    <path d="M178.781 140.483l2.675-2.525-29.254-2.527 3.344 5.053h23.235v-.001zm-23.235 2.358l-4.011 2.19h15.546l5.014-3.369-16.549 1.179z" fill="#2723D7"/>
    <path d="M159.559 138.463c-.001.299-.09.592-.256.841a1.506 1.506 0 01-1.547.641 1.515 1.515 0 01.298-3c.83 0 1.505.68 1.505 1.518z" fill="#fff"/>
    <path d="M161.242 223.878c0-9.965-8.016-18.044-17.903-18.044-9.888 0-17.903 8.079-17.903 18.042 0 9.965 8.015 18.042 17.903 18.042 9.887 0 17.903-8.077 17.903-18.042v.002zm152.375 0c0-9.965-8.016-18.044-17.904-18.044-9.887 0-17.903 8.079-17.903 18.042 0 9.965 8.016 18.042 17.903 18.042 9.888 0 17.904-8.077 17.904-18.042" fill="#303030"/>
    <path fill-rule="evenodd" clip-rule="evenodd" d="M218.405 183.605a8.07 8.07 0 00-5.718 2.385 8.152 8.152 0 00-2.368 5.75v19.702h34.557v-19.701c0-4.496-3.623-8.136-8.085-8.136h-18.386zm1.941 10.079v7.679h14.505v-7.679h-14.507.002zm35.334-10.079a8.07 8.07 0 00-5.718 2.385 8.15 8.15 0 00-2.367 5.75v19.702h34.558v-19.701c0-4.496-3.623-8.136-8.087-8.136H255.68zm1.941 10.079v7.679h14.507v-7.679h-14.507z" fill="#303030"/>
    <path d="M176.614 188.073l-2.491-.405a1.818 1.818 0 01-1.491-2.082l6.234-39.385c.038-.235.121-.46.245-.663a1.794 1.794 0 011.119-.813 1.79 1.79 0 01.703-.026l2.491.404a1.813 1.813 0 011.489 2.082l-6.234 39.384a1.807 1.807 0 01-2.065 1.503v.001zm63.389 0l-2.491-.405a1.804 1.804 0 01-1.173-.731 1.827 1.827 0 01-.317-1.351l6.235-39.385a1.808 1.808 0 011.362-1.476 1.79 1.79 0 01.703-.026l2.491.404a1.815 1.815 0 011.491 2.082l-6.234 39.384a1.807 1.807 0 01-2.067 1.503" fill="#909090"/>
    <path d="M241.97 182.544v3.737a1.809 1.809 0 01-1.802 1.815h-25.139c-.996 0-1.8-.813-1.8-1.815a5.56 5.56 0 011.61-3.923 5.502 5.502 0 013.898-1.629h21.431c.996 0 1.802.812 1.802 1.815zm37.022 0v3.737a1.807 1.807 0 01-1.801 1.815h-25.138a1.808 1.808 0 01-1.801-1.815 5.545 5.545 0 013.399-5.127 5.485 5.485 0 012.111-.425h21.429c.997 0 1.803.812 1.803 1.815h-.002zm37.007 0v3.737a1.808 1.808 0 01-1.801 1.815h-25.139a1.808 1.808 0 01-1.802-1.815 5.56 5.56 0 011.611-3.923 5.506 5.506 0 013.899-1.629h21.431c.995 0 1.801.812 1.801 1.815z" fill="#909090"/>
    <path d="M275.603 189.596l-2.491-.406a1.804 1.804 0 01-1.174-.73 1.821 1.821 0 01-.317-1.352l6.234-39.383a1.811 1.811 0 011.363-1.478c.231-.055.47-.064.704-.026l2.491.405a1.816 1.816 0 011.491 2.083l-6.234 39.383a1.811 1.811 0 01-1.364 1.478c-.231.055-.47.064-.704.026h.001zm38.365-1.523l-2.489-.405a1.818 1.818 0 01-1.491-2.082l6.234-39.385c.038-.235.121-.46.245-.663a1.794 1.794 0 011.119-.813 1.79 1.79 0 01.703-.026l2.491.404a1.814 1.814 0 011.49 2.082l-6.235 39.384a1.807 1.807 0 01-2.065 1.503" fill="#909090"/>
    <path fill-rule="evenodd" clip-rule="evenodd" d="M248.01 177.75h29.137v20.856H248.01V177.75z" fill="#C9C9C9"/>
    <path fill-rule="evenodd" clip-rule="evenodd" d="M249.205 206.402v-27.588c0-.067.045-.127.113-.127h26.766c.067 0 .115.06.115.127v27.588h10.025v-27.588a10.25 10.25 0 00-.77-3.904 10.175 10.175 0 00-5.487-5.524 10.111 10.111 0 00-3.883-.778h-26.766a10.11 10.11 0 00-7.172 2.991 10.2 10.2 0 00-2.198 3.311 10.248 10.248 0 00-.769 3.904v27.588h10.026z" fill="#FFB600"/>
    <path fill-rule="evenodd" clip-rule="evenodd" d="M247.107 174.096v5.148c0 1.336.529 2.617 1.468 3.562a5.005 5.005 0 003.543 1.476c1.33 0 2.605-.531 3.545-1.475a5.055 5.055 0 001.47-3.563v-5.148a5.055 5.055 0 00-1.469-3.564 4.999 4.999 0 00-3.544-1.476 5 5 0 00-3.543 1.476 5.056 5.056 0 00-1.469 3.562l-.001.002zm3.456 13.24h-5.108a5.005 5.005 0 00-3.543 1.476 5.056 5.056 0 000 7.125 4.996 4.996 0 003.543 1.477h5.108c1.33 0 2.604-.531 3.544-1.476a5.055 5.055 0 00.001-7.125 5 5 0 00-3.543-1.477h-.002z" fill="#FFB600"/>
    <path fill-rule="evenodd" clip-rule="evenodd" d="M244.192 204.989h37.019v-10.08h-37.019v10.08z" fill="#FFB600"/>
    <path fill-rule="evenodd" clip-rule="evenodd" d="M171.324 204.537h104.123v12.759H171.324v-12.759z" fill="#A6A6A6"/>
    <path d="M182.495 169.409h-46.253l20.485-38.293c2.773-4.547 9.791-9.055 14.905-11.178h10.863a4.532 4.532 0 013.211 1.342 4.58 4.58 0 011.327 3.231v40.327a4.583 4.583 0 01-1.327 3.231 4.531 4.531 0 01-3.211 1.341v-.001zm101.643.001a4.531 4.531 0 01-3.211-1.341 4.583 4.583 0 01-1.327-3.231v-40.327a4.58 4.58 0 011.327-3.231 4.532 4.532 0 013.211-1.342h38.048a4.21 4.21 0 012.981 1.246 4.25 4.25 0 011.232 3v40.98a4.249 4.249 0 01-1.232 3 4.206 4.206 0 01-2.981 1.246h-38.048zm-10.063 44.528h-81.517v-94h81.517v94zM97 189.011v20.473c0 7.309 5.88 13.234 13.132 13.234h12.97c.599-10.729 9.445-19.271 20.238-19.271 10.792 0 19.64 8.544 20.237 19.271h111.899c.599-10.729 9.445-19.271 20.239-19.271 10.791 0 19.639 8.544 20.237 19.271h3.713c7.251 0 13.13-5.925 13.13-13.234v-84.412c0-6.119-4.921-11.079-10.992-11.079H179.461c-12.394 0-23.896 6.484-30.386 17.123l-20.756 38.8-18.186 5.861C101.968 178.648 97 181.702 97 189.011z" fill="#FFA100"/>
    <path d="M192.558 199.264v6.642h-33.289l-5.272-3.579-9.148-3.064h47.709v.001zm81.518 0h58.721v6.642h-27.459a20.014 20.014 0 00-9.623-2.459c-3.481 0-6.758.894-9.623 2.459h-12.016v-6.642z" fill="#FFDD72"/>
    <path fill-rule="evenodd" clip-rule="evenodd" d="M139.736 197.264a20.787 20.787 0 013.605-.288 26.607 26.607 0 0126.296 22.08h22.972v5.732h-28.141l-.193-2.659c-.791-10.954-9.863-19.421-20.934-19.421-2.164 0-3.641.349-5.601.968l-3.706 1.172v-35.437h5.702v27.853z" fill="#B74A00"/>
    <path d="M149.476 176.724h4.755v-18.075h-4.755a3.164 3.164 0 00-2.24.936 3.198 3.198 0 00-.925 2.254v11.697a3.19 3.19 0 00.926 2.253 3.159 3.159 0 002.239.935z" fill="#FFB600"/>
    <path d="M109.883 186.779c0 5.357-4.309 9.701-9.625 9.701H97v-7.469c0-2.777.719-4.937 2.055-6.708h7.849c1.646 0 2.979 1.343 2.979 3.002v1.474z" fill="#E7E7E7"/>
    <path d="M196.981 130.638c0-4.371 3.517-10.699 7.852-10.699h56.175a7.843 7.843 0 015.557 2.321 7.915 7.915 0 012.296 5.592v33.646c0 4.371-3.516 7.913-7.853 7.913h-56.175a7.832 7.832 0 01-5.556-2.322 7.922 7.922 0 01-2.296-5.591v-30.86zm-4.423 92.08h81.517V113.994h-81.517v108.724z" fill="#FFA100"/>
    <path fill-rule="evenodd" clip-rule="evenodd" d="M192.609 199.264h80.68v6.642h-80.68v-6.642z" fill="#FFDD72"/>
    <path d="M250.485 179.019h11.956a3.205 3.205 0 002.279-.952 3.25 3.25 0 00.942-2.293v-1.343h-18.398v1.343c0 1.791 1.441 3.245 3.221 3.245z" fill="#FFB600"/>
    <path fill-rule="evenodd" clip-rule="evenodd" d="M270.439 219.056V113.994h5.7v110.794h-86.431V113.994h5.7v105.062h75.031z" fill="#B74A00"/>
  </g>
  <defs>
    <linearGradient id="paint0_linear" x1="224" y1="24" x2="224" y2="334" gradientUnits="userSpaceOnUse">
      <stop stop-color="#64E9FF"/>
      <stop offset="1" stop-color="#5CB1F7"/>
    </linearGradient>
    <linearGradient id="paint1_linear" x1="226.5" y1="178" x2="226.5" y2="263" gradientUnits="userSpaceOnUse">
      <stop stop-color="#C4C4C4"/>
      <stop offset="1" stop-color="#E2E2E2"/>
    </linearGradient>
    <clipPath id="clip0">
      <path fill="#fff" transform="translate(97 114)" d="M0 0h237v129H0z"/>
    </clipPath>
  </defs>
</svg>