<svg width="122" height="48" viewBox="0 0 122 48" fill="none" xmlns="http://www.w3.org/2000/svg">
<path d="M24.6576 15.1635V5.35661H21.356V3.72213H30.1985V5.35661H26.8968V15.1635H24.6576Z" fill="black"/>
<path d="M30.2032 15.1635V9.26305C30.2032 8.88712 30.1869 8.4785 30.1542 8.03719C30.1215 7.61222 30.0725 7.23629 30.0234 6.89305H32.0012C32.0502 7.07284 32.0829 7.28533 32.1319 7.54684C32.181 7.8247 32.2136 8.08622 32.2463 8.36408C32.4915 7.72663 32.8021 7.26898 33.178 7.02381C33.5539 6.77864 33.9298 6.66422 34.3058 6.66422C34.4529 6.66422 34.6 6.68057 34.7471 6.69691C34.8942 6.71326 35.0413 6.76229 35.2211 6.81133L35.0903 8.64194C34.9759 8.6256 34.8452 8.59291 34.7307 8.57656C34.6163 8.56022 34.4856 8.56022 34.3385 8.56022C33.9952 8.56022 33.6847 8.64194 33.3905 8.80539C33.0799 8.98518 32.8347 9.29574 32.655 9.73705C32.4588 10.1784 32.3444 10.8321 32.3281 11.6657V15.1635H30.2032Z" fill="black"/>
<path d="M43.0839 15.1635H41.2206C41.1716 15.0491 41.1389 14.902 41.1062 14.7386C41.0735 14.5751 41.0408 14.4117 41.0245 14.2319C40.7629 14.5915 40.4197 14.8693 39.9784 15.0818C39.5371 15.2943 39.0141 15.3923 38.4093 15.3923C37.543 15.3923 36.8892 15.1472 36.4152 14.6895C35.9412 14.1992 35.7124 13.5781 35.7124 12.7935C35.7124 11.8946 36.0066 11.2081 36.6114 10.7668C37.2161 10.3255 38.0497 10.113 39.1448 10.113C39.6842 10.113 40.2399 10.162 40.812 10.2601V10.1457C40.812 9.42649 40.6812 8.91981 40.4197 8.6256C40.1418 8.34774 39.6842 8.20063 39.0467 8.20063C38.6545 8.20063 38.2458 8.24967 37.8372 8.33139C37.4123 8.42946 37.02 8.54388 36.6767 8.65829L36.2845 7.38339C36.7258 7.2036 37.2488 7.02381 37.8209 6.89305C38.3929 6.7296 38.9977 6.66422 39.6352 6.66422C40.7793 6.66422 41.6129 6.94208 42.1359 7.49781C42.6426 8.06988 42.9041 8.9525 42.9041 10.1457V12.7935C42.9041 13.1695 42.9205 13.5781 42.9531 14.003C43.0022 14.428 43.0349 14.8203 43.0839 15.1635ZM37.8863 12.6791C37.8863 13.0387 37.9843 13.3166 38.1968 13.529C38.4093 13.7579 38.7198 13.8559 39.1448 13.8559C39.6842 13.8559 40.0928 13.7088 40.387 13.3983C40.6649 13.0877 40.812 12.6301 40.812 11.9926V11.6004C40.5341 11.5513 40.2889 11.5186 40.0601 11.5023C39.8149 11.4859 39.6025 11.4859 39.4227 11.4859C38.9323 11.4859 38.5564 11.584 38.2949 11.7638C38.017 11.9436 37.8863 12.2541 37.8863 12.6791Z" fill="black"/>
<path d="M48.5492 15.1634H46.8821C46.2773 13.7741 45.7052 12.4012 45.1659 11.0282C44.6265 9.65524 44.1361 8.28228 43.6948 6.89297H45.885C46.1465 7.90634 46.4408 8.91972 46.7676 9.9331C47.0782 10.9465 47.4378 11.9599 47.8137 12.9569C48.5165 10.9465 49.0886 8.91972 49.5463 6.89297H51.7365C51.2952 8.28228 50.8048 9.65524 50.2654 11.0282C49.7261 12.4012 49.154 13.7741 48.5492 15.1634Z" fill="black"/>
<path d="M59.4974 14.4934C59.0234 14.8039 58.5003 15.0164 57.9609 15.1635C57.4216 15.3106 56.8658 15.3923 56.3265 15.3923C55.0352 15.3923 54.0382 15.0164 53.3354 14.2482C52.6325 13.48 52.2729 12.4176 52.2729 11.061C52.2729 9.63898 52.6162 8.56022 53.3027 7.79201C54.0055 7.04015 54.9535 6.66422 56.163 6.66422C57.3398 6.66422 58.2388 7.04015 58.8436 7.80836C59.432 8.57656 59.7425 9.68801 59.7425 11.11V11.6657H54.4468C54.5122 12.4503 54.741 12.9897 55.1169 13.3002C55.4765 13.6108 56.0323 13.7579 56.7514 13.7579C57.0947 13.7579 57.4543 13.7088 57.8465 13.6271C58.2225 13.5454 58.6474 13.4146 59.1051 13.2348L59.4974 14.4934ZM56.163 8.20063C55.1333 8.20063 54.5612 8.90346 54.4468 10.3255H57.634C57.585 9.55725 57.4543 9.00153 57.2254 8.67463C56.9803 8.36408 56.637 8.20063 56.163 8.20063Z" fill="black"/>
<path d="M61.3574 12.4992V3.23172H63.4822V12.4829C63.4822 12.9896 63.564 13.3328 63.7111 13.5453C63.8582 13.7578 64.1033 13.8558 64.4466 13.8558C64.7081 13.8558 64.9696 13.8232 65.2148 13.7741L65.3129 15.1144C65.1331 15.1961 64.9206 15.2615 64.6591 15.3105C64.3976 15.3596 64.1034 15.3923 63.7765 15.3923C63.0082 15.3923 62.4035 15.1798 61.9949 14.7548C61.5699 14.3135 61.3574 13.5616 61.3574 12.4992Z" fill="black"/>
<path d="M69.876 14.3789L70.3009 13.0223C70.873 13.2838 71.4451 13.4799 71.9845 13.5944C72.5238 13.7251 73.0469 13.7905 73.5536 13.7905C74.9756 13.7905 75.6947 13.2348 75.6947 12.1233C75.6947 11.682 75.5803 11.3224 75.3351 11.0609C75.09 10.8157 74.6487 10.6033 73.9785 10.4398L73.1286 10.2273C72.1316 9.98216 71.3634 9.57354 70.8403 9.03416C70.3336 8.51112 70.0721 7.77561 70.0721 6.8603C70.0721 5.81423 70.4317 4.99699 71.1182 4.39223C71.8374 3.78748 72.8017 3.49327 74.0602 3.49327C75.2861 3.49327 76.4139 3.77113 77.46 4.32686L77.035 5.69982C76.561 5.48734 76.0707 5.34023 75.5967 5.24216C75.1227 5.1441 74.665 5.09506 74.24 5.09506C72.9325 5.09506 72.2787 5.60175 72.2787 6.63147C72.2787 7.07278 72.4094 7.41602 72.6709 7.66119C72.9325 7.92271 73.3738 8.13519 73.9949 8.2823L74.8448 8.49478C75.8745 8.7563 76.6427 9.14857 77.1494 9.65526C77.6561 10.1783 77.9013 10.9138 77.9013 11.8782C77.9013 12.9733 77.5253 13.8232 76.7735 14.4606C76.0216 15.0817 75.0082 15.3923 73.7334 15.3923C72.9651 15.3923 72.246 15.2942 71.5595 15.0981C70.873 14.9019 70.3173 14.6568 69.876 14.3789Z" fill="black"/>
<path d="M86.5125 14.4934C86.0385 14.8039 85.5155 15.0164 84.9761 15.1635C84.4367 15.3106 83.881 15.3923 83.3416 15.3923C82.0504 15.3923 81.0533 15.0164 80.3505 14.2482C79.6477 13.48 79.2881 12.4176 79.2881 11.061C79.2881 9.63898 79.6313 8.56022 80.3178 7.79201C81.0206 7.04015 81.9686 6.66422 83.1781 6.66422C84.355 6.66422 85.2539 7.04015 85.8587 7.80836C86.4471 8.57656 86.7577 9.68801 86.7577 11.11V11.6657H81.4619C81.5273 12.4503 81.7562 12.9897 82.1321 13.3002C82.4917 13.6108 83.0474 13.7579 83.7666 13.7579C84.1098 13.7579 84.4694 13.7088 84.8617 13.6271C85.2376 13.5454 85.6626 13.4146 86.1202 13.2348L86.5125 14.4934ZM83.1781 8.20063C82.1484 8.20063 81.5764 8.90346 81.4619 10.3255H84.6492C84.6001 9.55725 84.4694 9.00153 84.2406 8.67463C83.9954 8.36408 83.6521 8.20063 83.1781 8.20063Z" fill="black"/>
<path d="M88.3736 15.1635V9.26305C88.3736 8.88712 88.3573 8.4785 88.3246 8.03719C88.2919 7.61222 88.2429 7.23629 88.1938 6.89305H90.1716C90.2206 7.07284 90.2533 7.28533 90.3023 7.54684C90.3514 7.8247 90.3841 8.08622 90.4167 8.36408C90.6619 7.72663 90.9725 7.26898 91.3484 7.02381C91.7243 6.77864 92.1003 6.66422 92.4762 6.66422C92.6233 6.66422 92.7704 6.68057 92.9175 6.69691C93.0646 6.71326 93.2117 6.76229 93.3915 6.81133L93.2607 8.64194C93.1463 8.6256 93.0156 8.59291 92.9012 8.57656C92.7867 8.56022 92.656 8.56022 92.5089 8.56022C92.1656 8.56022 91.8551 8.64194 91.5609 8.80539C91.2503 8.98518 91.0052 9.29574 90.8254 9.73705C90.6292 10.1784 90.5148 10.8321 90.4985 11.6657V15.1635H88.3736Z" fill="black"/>
<path d="M98.7074 15.1634H97.0403C96.4355 13.7741 95.8634 12.4012 95.3241 11.0282C94.7847 9.65524 94.2943 8.28228 93.853 6.89297H96.0432C96.3047 7.90634 96.599 8.91972 96.9258 9.9331C97.2364 10.9465 97.596 11.9599 97.9719 12.9569C98.6747 10.9465 99.2468 8.91972 99.7045 6.89297H101.895C101.453 8.28228 100.963 9.65524 100.424 11.0282C99.8843 12.4012 99.3122 13.7741 98.7074 15.1634Z" fill="black"/>
<path d="M102.789 4.44128C102.789 4.06535 102.919 3.7548 103.165 3.50963C103.41 3.26445 103.72 3.15004 104.096 3.15004C104.472 3.15004 104.783 3.26445 105.044 3.50963C105.273 3.7548 105.404 4.06535 105.404 4.44128C105.404 4.81721 105.273 5.12776 105.044 5.37293C104.783 5.61811 104.472 5.73252 104.096 5.73252C103.72 5.73252 103.41 5.61811 103.165 5.37293C102.919 5.12776 102.789 4.81721 102.789 4.44128ZM103.034 15.1635V6.893H105.159V15.1635H103.034Z" fill="black"/>
<path d="M113.208 13.3492L113.6 14.6078C113.257 14.8203 112.848 15.0164 112.374 15.1635C111.884 15.3106 111.345 15.3923 110.773 15.3923C109.547 15.3923 108.599 15.0001 107.912 14.2155C107.242 13.431 106.899 12.3686 106.899 11.0283C106.899 9.67167 107.259 8.59291 107.994 7.8247C108.713 7.0565 109.694 6.66422 110.952 6.66422C111.459 6.66422 111.933 6.7296 112.342 6.84402C112.75 6.95843 113.159 7.13822 113.535 7.3507L113.11 8.69098C112.701 8.52753 112.358 8.41312 112.08 8.34774C111.786 8.28236 111.492 8.24967 111.181 8.24967C110.478 8.24967 109.955 8.4785 109.612 8.93615C109.269 9.3938 109.105 10.0966 109.105 11.0283C109.105 11.9599 109.269 12.6464 109.596 13.1041C109.939 13.5781 110.462 13.8069 111.165 13.8069C111.802 13.8069 112.489 13.6598 113.208 13.3492Z" fill="black"/>
<path d="M121.659 14.4934C121.185 14.8039 120.662 15.0164 120.123 15.1635C119.583 15.3106 119.027 15.3923 118.488 15.3923C117.197 15.3923 116.2 15.0164 115.497 14.2482C114.794 13.48 114.435 12.4176 114.435 11.061C114.435 9.63898 114.778 8.56022 115.464 7.79201C116.167 7.04015 117.115 6.66422 118.325 6.66422C119.501 6.66422 120.4 7.04015 121.005 7.80836C121.594 8.57656 121.904 9.68801 121.904 11.11V11.6657H116.608C116.674 12.4503 116.903 12.9897 117.279 13.3002C117.638 13.6108 118.194 13.7579 118.913 13.7579C119.256 13.7579 119.616 13.7088 120.008 13.6271C120.384 13.5454 120.809 13.4146 121.267 13.2348L121.659 14.4934ZM118.325 8.20063C117.295 8.20063 116.723 8.90346 116.608 10.3255H119.796C119.747 9.55725 119.616 9.00153 119.387 8.67463C119.142 8.36408 118.799 8.20063 118.325 8.20063Z" fill="black"/>
<path d="M26.886 31.9329C25.2351 31.9329 23.9602 31.4262 23.1103 30.4129C22.244 29.3995 21.8027 27.9285 21.8027 25.9834C21.8027 24.0384 22.244 22.5674 23.1103 21.554C23.9602 20.5406 25.2351 20.0339 26.886 20.0339C28.5368 20.0339 29.8117 20.5406 30.678 21.554C31.5279 22.5674 31.9692 24.0384 31.9692 25.9834C31.9692 27.9285 31.5279 29.3995 30.678 30.4129C29.8117 31.4262 28.5368 31.9329 26.886 31.9329ZM26.886 30.3311C27.8176 30.3311 28.5204 29.9552 28.9944 29.2197C29.4684 28.4842 29.6973 27.4054 29.6973 25.9834C29.6973 24.5614 29.4684 23.4827 28.9944 22.7472C28.5204 22.0116 27.8176 21.6357 26.886 21.6357C25.9543 21.6357 25.2678 22.0116 24.7938 22.7472C24.3198 23.4827 24.0747 24.5614 24.0747 25.9834C24.0747 27.4054 24.3198 28.4842 24.7938 29.2197C25.2678 29.9552 25.9543 30.3311 26.886 30.3311Z" fill="black"/>
<path d="M33.7179 34.973V25.8036C33.7179 25.4277 33.7015 25.019 33.6688 24.5777C33.6362 24.1528 33.5871 23.7768 33.5381 23.4336H35.5158C35.5812 23.6788 35.6466 24.022 35.7119 24.4306C36.0062 24.0383 36.3821 23.7278 36.8397 23.5317C37.281 23.3028 37.755 23.2048 38.2454 23.2048C39.3405 23.2048 40.1904 23.5807 40.7952 24.3162C41.3836 25.0681 41.6778 26.1141 41.6778 27.4544C41.6778 28.9254 41.3346 30.0369 40.6644 30.7887C39.9943 31.557 39.079 31.9329 37.9512 31.9329C37.5262 31.9329 37.1339 31.8838 36.7907 31.7694C36.4475 31.6714 36.1206 31.5406 35.8427 31.3608V34.973H33.7179ZM35.8427 26.6862V29.8734C36.0715 30.0205 36.3167 30.1513 36.5946 30.233C36.8561 30.3147 37.1339 30.3638 37.4281 30.3638C38.0656 30.3638 38.5559 30.1513 38.9319 29.71C39.2915 29.2687 39.4712 28.5495 39.4712 27.5361C39.4712 26.6045 39.3241 25.9017 39.0136 25.444C38.703 25.0027 38.2617 24.7739 37.6733 24.7739C37.183 24.7739 36.758 24.9373 36.3984 25.2805C36.0225 25.6238 35.8427 26.0814 35.8427 26.6862Z" fill="black"/>
<path d="M43.7158 28.6639V24.97H42.4736V23.7605L42.8332 23.7114C43.1438 23.6624 43.3889 23.5807 43.5687 23.4663C43.7485 23.3355 43.8956 23.1067 44.01 22.7961C44.1245 22.4856 44.2389 22.0116 44.3369 21.4068H45.8407V23.4336H48.3087V24.97H45.8407V28.3043C45.8407 29.0398 45.9387 29.5792 46.1512 29.9061C46.3474 30.233 46.7233 30.3965 47.2954 30.3965C47.4098 30.3965 47.5732 30.3801 47.753 30.3638C47.9328 30.3474 48.0962 30.3147 48.2434 30.2821L48.3414 31.6714C48.0636 31.7694 47.753 31.8348 47.4098 31.8675C47.0665 31.9165 46.7887 31.9329 46.6089 31.9329C46.0368 31.9329 45.5465 31.8348 45.1051 31.655C44.6638 31.4752 44.3369 31.132 44.0918 30.658C43.8466 30.184 43.7158 29.5302 43.7158 28.6639Z" fill="black"/>
<path d="M49.2349 20.9818C49.2349 20.6059 49.3656 20.2953 49.6108 20.0502C49.856 19.805 50.1665 19.6906 50.5424 19.6906C50.9184 19.6906 51.2289 19.805 51.4904 20.0502C51.7193 20.2953 51.85 20.6059 51.85 20.9818C51.85 21.3577 51.7193 21.6683 51.4904 21.9135C51.2289 22.1586 50.9184 22.2731 50.5424 22.2731C50.1665 22.2731 49.856 22.1586 49.6108 21.9135C49.3656 21.6683 49.2349 21.3577 49.2349 20.9818ZM49.48 31.704V23.4335H51.6049V31.704H49.48Z" fill="black"/>
<path d="M53.7633 31.7041V25.8036C53.7633 25.4277 53.7469 25.019 53.7143 24.5777C53.6816 24.1528 53.6325 23.7768 53.5835 23.4336H55.5612C55.6103 23.5807 55.6429 23.7768 55.692 23.9893C55.7247 24.2018 55.7574 24.4306 55.79 24.6758C56.0679 24.2345 56.4111 23.8749 56.8525 23.597C57.2774 23.3355 57.7678 23.2048 58.3071 23.2048C58.9446 23.2048 59.484 23.3519 59.9089 23.6297C60.3176 23.9076 60.6281 24.3162 60.8406 24.8556C61.1184 24.3489 61.478 23.9566 61.952 23.6461C62.4097 23.3519 62.9327 23.2048 63.5375 23.2048C64.5018 23.2048 65.2046 23.5153 65.6623 24.1201C66.12 24.7248 66.3488 25.5911 66.3488 26.6862V31.7041H64.224V27.0294C64.224 26.3266 64.1259 25.8036 63.9134 25.4603C63.7009 25.1171 63.3413 24.9537 62.8673 24.9537C62.3933 24.9537 61.9847 25.1334 61.6415 25.493C61.2982 25.869 61.1184 26.343 61.1184 26.9314V31.7041H58.9936V27.0294C58.9936 26.3266 58.8956 25.8036 58.6831 25.4603C58.4706 25.1171 58.111 24.9537 57.637 24.9537C57.163 24.9537 56.7544 25.1334 56.4111 25.493C56.0679 25.869 55.8881 26.343 55.8881 26.9314V31.7041H53.7633Z" fill="black"/>
<path d="M68.1187 20.9818C68.1187 20.6059 68.2494 20.2953 68.4946 20.0502C68.7398 19.805 69.0503 19.6906 69.4262 19.6906C69.8022 19.6906 70.1127 19.805 70.3742 20.0502C70.6031 20.2953 70.7338 20.6059 70.7338 20.9818C70.7338 21.3577 70.6031 21.6683 70.3742 21.9135C70.1127 22.1586 69.8022 22.2731 69.4262 22.2731C69.0503 22.2731 68.7398 22.1586 68.4946 21.9135C68.2494 21.6683 68.1187 21.3577 68.1187 20.9818ZM68.3638 31.704V23.4335H70.4886V31.704H68.3638Z" fill="black"/>
<path d="M72.0801 31.7041V30.2004L75.8067 25.1008H72.1618V23.4336H78.4709V24.921L74.6952 30.0369H78.5526V31.7041H72.0801Z" fill="black"/>
<path d="M87.017 31.7041H85.1537C85.1047 31.5896 85.072 31.4425 85.0393 31.2791C85.0066 31.1156 84.9739 30.9522 84.9576 30.7724C84.6961 31.132 84.3528 31.4099 83.9115 31.6223C83.4702 31.8348 82.9472 31.9329 82.3424 31.9329C81.4761 31.9329 80.8223 31.6877 80.3483 31.2301C79.8743 30.7397 79.6455 30.1186 79.6455 29.3341C79.6455 28.4351 79.9397 27.7486 80.5445 27.3073C81.1492 26.866 81.9828 26.6535 83.0779 26.6535C83.6173 26.6535 84.173 26.7025 84.7451 26.8006V26.6862C84.7451 25.967 84.6143 25.4603 84.3528 25.1661C84.0749 24.8883 83.6173 24.7412 82.9798 24.7412C82.5876 24.7412 82.179 24.7902 81.7703 24.8719C81.3454 24.97 80.9531 25.0844 80.6099 25.1988L80.2176 23.9239C80.6589 23.7441 81.1819 23.5643 81.754 23.4336C82.3261 23.2701 82.9308 23.2048 83.5683 23.2048C84.7124 23.2048 85.546 23.4826 86.069 24.0383C86.5757 24.6104 86.8372 25.493 86.8372 26.6862V29.3341C86.8372 29.71 86.8536 30.1186 86.8863 30.5436C86.9353 30.9685 86.968 31.3608 87.017 31.7041ZM81.8194 29.2196C81.8194 29.5792 81.9174 29.8571 82.1299 30.0696C82.3424 30.2984 82.653 30.3965 83.0779 30.3965C83.6173 30.3965 84.0259 30.2494 84.3201 29.9388C84.598 29.6283 84.7451 29.1706 84.7451 28.5332V28.1409C84.4672 28.0919 84.2221 28.0592 83.9932 28.0428C83.7481 28.0265 83.5356 28.0265 83.3558 28.0265C82.8654 28.0265 82.4895 28.1245 82.228 28.3043C81.9501 28.4841 81.8194 28.7947 81.8194 29.2196Z" fill="black"/>
<path d="M89.0786 28.6639V24.97H87.8364V23.7605L88.196 23.7114C88.5066 23.6624 88.7517 23.5807 88.9315 23.4663C89.1113 23.3355 89.2584 23.1067 89.3728 22.7961C89.4873 22.4856 89.6017 22.0116 89.6997 21.4068H91.2035V23.4336H93.6715V24.97H91.2035V28.3043C91.2035 29.0398 91.3015 29.5792 91.514 29.9061C91.7101 30.233 92.0861 30.3965 92.6581 30.3965C92.7726 30.3965 92.936 30.3801 93.1158 30.3638C93.2956 30.3474 93.459 30.3147 93.6061 30.2821L93.7042 31.6714C93.4263 31.7694 93.1158 31.8348 92.7726 31.8675C92.4293 31.9165 92.1515 31.9329 91.9717 31.9329C91.3996 31.9329 90.9092 31.8348 90.4679 31.655C90.0266 31.4752 89.6997 31.132 89.4546 30.658C89.2094 30.184 89.0786 29.5302 89.0786 28.6639Z" fill="black"/>
<path d="M94.5977 20.9818C94.5977 20.6059 94.7284 20.2953 94.9736 20.0502C95.2188 19.805 95.5293 19.6906 95.9052 19.6906C96.2812 19.6906 96.5917 19.805 96.8532 20.0502C97.0821 20.2953 97.2128 20.6059 97.2128 20.9818C97.2128 21.3577 97.0821 21.6683 96.8532 21.9135C96.5917 22.1586 96.2812 22.2731 95.9052 22.2731C95.5293 22.2731 95.2188 22.1586 94.9736 21.9135C94.7284 21.6683 94.5977 21.3577 94.5977 20.9818ZM94.8428 31.704V23.4335H96.9677V31.704H94.8428Z" fill="black"/>
<path d="M102.712 31.9329C101.454 31.9329 100.473 31.557 99.7704 30.7887C99.0676 30.0369 98.708 28.9581 98.708 27.5688C98.708 26.1795 99.0676 25.1008 99.7704 24.3325C100.473 23.5807 101.454 23.2048 102.712 23.2048C103.971 23.2048 104.968 23.5807 105.671 24.3325C106.357 25.1008 106.717 26.1795 106.717 27.5688C106.717 28.9581 106.357 30.0369 105.671 30.7887C104.968 31.557 103.971 31.9329 102.712 31.9329ZM102.712 30.3965C103.906 30.3965 104.51 29.4485 104.51 27.5688C104.51 25.6892 103.906 24.7412 102.712 24.7412C101.519 24.7412 100.915 25.6892 100.915 27.5688C100.915 29.4485 101.519 30.3965 102.712 30.3965Z" fill="black"/>
<path d="M108.449 31.7041V25.8036C108.449 25.4277 108.432 25.019 108.4 24.5777C108.367 24.1528 108.318 23.7768 108.269 23.4336H110.247C110.296 23.5807 110.328 23.7768 110.378 24.0057C110.41 24.2181 110.443 24.447 110.476 24.6758C110.753 24.2345 111.129 23.8749 111.571 23.597C111.996 23.3355 112.519 23.2048 113.107 23.2048C114.104 23.2048 114.84 23.5153 115.314 24.1364C115.771 24.7575 116 25.6401 116 26.7679V31.7041H113.875V27.1112C113.875 26.3593 113.761 25.8036 113.548 25.4603C113.336 25.1171 112.96 24.9537 112.437 24.9537C111.898 24.9537 111.456 25.1334 111.113 25.5094C110.753 25.8853 110.574 26.3756 110.574 27.0131V31.7041H108.449Z" fill="black"/>
<path d="M66.1235 46.2887C67.5946 46.2887 68.6199 45.5309 68.6199 44.4276C68.6199 43.4803 68.0626 42.9232 66.8925 42.6781L66.157 42.5219C65.7892 42.444 65.5886 42.2768 65.5886 42.0651C65.5886 41.7752 65.8673 41.5969 66.3241 41.5969C66.8367 41.5969 67.3272 41.7418 67.9066 42.0762L68.4082 40.9284C67.8843 40.5494 67.171 40.3377 66.3798 40.3377C64.9423 40.3377 64.0061 41.0733 64.0061 42.221C64.0061 43.1348 64.5522 43.6698 65.7111 43.9039L66.3911 44.0487C66.8479 44.1491 67.004 44.2827 67.004 44.5501C67.004 44.8399 66.6807 45.0072 66.1012 45.0072C65.6221 45.0072 64.92 44.7509 64.3293 44.3607L63.839 45.5197C64.3405 45.9878 65.2097 46.2776 66.1235 46.2887ZM60.4957 44.8957C59.6822 44.8957 59.1583 44.305 59.1583 43.3131C59.1583 42.3214 59.6822 41.7307 60.4957 41.7307C61.3093 41.7307 61.8329 42.3214 61.8329 43.3131C61.8329 44.305 61.3093 44.8957 60.4957 44.8957ZM60.9192 40.3377C60.1614 40.3377 59.582 40.6608 59.2253 41.1958V38.0642H57.6872V44.5613C57.6872 45.0963 57.665 45.5644 57.6205 46.1327H59.0693C59.0915 45.9098 59.1139 45.6757 59.1249 45.4195C59.5373 45.9989 60.1725 46.2887 60.8635 46.2887C62.2119 46.2887 63.4155 45.1966 63.4155 43.3131C63.4155 41.4854 62.3234 40.3377 60.9192 40.3377ZM54.0209 44.8957C53.2073 44.8957 52.6835 44.305 52.6835 43.3131C52.6835 42.3214 53.2073 41.7307 54.0209 41.7307C54.8344 41.7307 55.3581 42.3214 55.3581 43.3131C55.3581 44.305 54.8344 44.8957 54.0209 44.8957ZM54.0209 40.3377C52.3158 40.3377 51.101 41.5858 51.101 43.3131C51.101 45.0852 52.26 46.2887 53.9651 46.2887C55.7037 46.2887 56.9407 45.1408 56.9407 43.3131C56.9407 41.4854 55.7594 40.3377 54.0209 40.3377ZM48.9055 46.2887C49.6746 46.2887 50.4658 46.0212 50.9451 45.5866L50.3878 44.4165C49.9644 44.6839 49.4182 44.8623 48.9948 44.8623C48.1256 44.8623 47.5683 44.2716 47.5683 43.3131C47.5683 42.3881 48.1143 41.7641 49.0728 41.7641C49.474 41.7641 49.942 41.9425 50.3322 42.1987L50.9451 40.9841C50.4547 40.5606 49.786 40.3377 49.0393 40.3377C47.1114 40.3377 45.9859 41.7084 45.9859 43.3131C45.9859 45.1408 47.1002 46.2887 48.9055 46.2887ZM43.7459 44.0933C43.7459 44.8399 43.1107 45.0852 42.598 45.0852C42.0742 45.0852 41.7844 44.8845 41.7844 44.461C41.7844 44.0933 42.0184 43.8258 42.6538 43.7923L43.7459 43.7367V44.0933ZM45.2614 44.3607V42.5665C45.2614 41.1846 44.4033 40.3377 42.8878 40.3377C41.2495 40.3377 40.5363 41.374 40.4249 42.1987H41.8735C41.9627 41.8311 42.286 41.5969 42.8431 41.5969C43.3892 41.5969 43.7459 41.8756 43.7459 42.4328V42.6668L42.3416 42.7337C40.8594 42.8117 40.2576 43.5583 40.2576 44.5613C40.2576 45.6422 41.0266 46.2887 42.1967 46.2887C43.066 46.2887 43.6232 45.8651 43.9018 45.5197C43.9241 45.7538 43.9688 45.9767 44.0021 46.1327H45.4509C45.3395 45.6646 45.2614 44.8957 45.2614 44.3607ZM37.9507 41.1511H39.5779V38.0642H36.4018V39.6022H37.9507V41.1511ZM36.4352 46.2887C38.3074 46.2887 39.5779 44.9737 39.5779 43.146V42.1765H37.9507V43.146C37.9507 44.1045 37.3602 44.7285 36.4352 44.7285C35.566 44.7285 35.0644 44.1823 34.9753 43.4135H33.3594C33.4485 45.0963 34.6633 46.2887 36.4352 46.2887Z" fill="black"/>
<path d="M23.1982 43.7088V45.5345C23.4669 45.6556 23.763 45.7157 24.0866 45.7157C24.9144 45.7157 25.3283 45.1919 25.3283 44.1447C25.3283 43.6458 25.2432 43.2647 25.0736 43.0016C24.9036 42.7383 24.6344 42.6067 24.2673 42.6067C24.0866 42.6067 23.914 42.6521 23.7494 42.7422C23.5845 42.8328 23.4517 42.9604 23.3502 43.1252C23.249 43.2893 23.1982 43.4843 23.1982 43.7088ZM22.458 45.8719V40.2136H23.1982V42.6316C23.3517 42.4339 23.5382 42.2818 23.7578 42.1752C23.9769 42.068 24.2124 42.0144 24.465 42.0144C24.9911 42.0144 25.397 42.1996 25.6823 42.5696C25.9669 42.9399 26.1097 43.4512 26.1097 44.1037C26.1097 44.8166 25.9356 45.3633 25.5877 45.7444C25.2392 46.1254 24.7608 46.316 24.1522 46.316C23.8399 46.316 23.5343 46.2748 23.2353 46.1927C22.9363 46.1101 22.6775 46.0035 22.458 45.8719Z" fill="black"/>
<path d="M26.5088 47.8539L26.5498 47.2949C26.7475 47.3328 26.9282 47.3523 27.0928 47.3523C27.2625 47.3523 27.4093 47.322 27.5329 47.2618C27.656 47.2016 27.7698 47.0972 27.8743 46.9491C27.9782 46.8014 28.0853 46.5957 28.1952 46.3325C27.8275 45.5101 27.5092 44.7586 27.2407 44.0789C26.972 43.399 26.7364 42.7413 26.5333 42.1051H27.3312C27.49 42.6262 27.6673 43.1607 27.8618 43.7087C28.0563 44.2571 28.2906 44.8795 28.565 45.5757C28.7787 44.9893 28.9746 44.3914 29.1531 43.7828C29.331 43.1742 29.4805 42.6151 29.6011 42.1051H30.3988C30.3167 42.4174 30.2208 42.752 30.1111 43.1086C30.0014 43.4651 29.8836 43.8251 29.7576 44.1902C29.6314 44.5547 29.5024 44.9053 29.3708 45.2428C29.2392 45.5802 29.1134 45.8885 28.9924 46.1676C28.8283 46.5353 28.6801 46.8366 28.5484 47.0727C28.4168 47.3082 28.2852 47.4907 28.1535 47.6197C28.0224 47.7483 27.8783 47.8374 27.722 47.887C27.566 47.9361 27.3807 47.9611 27.167 47.9611C27.0573 47.9611 26.9408 47.9512 26.8171 47.932C26.694 47.9129 26.591 47.887 26.5088 47.8539Z" fill="black"/>
<path d="M11.4084 8.28579C11.2473 8.5633 11.0695 8.83057 10.8866 9.07854C10.6961 9.3421 10.5004 9.58495 10.3163 9.79992L9.85975 10.3076C9.56178 10.6222 9.35845 10.8076 9.35845 10.8076C9.35845 10.8076 9.3431 10.8243 9.31369 10.8537C9.283 10.8243 9.26765 10.8076 9.26765 10.8076C9.26765 10.8076 9.06432 10.6209 8.76507 10.3063L8.30981 9.79992C7.62692 9.00194 6.79057 7.83168 6.56038 6.67562C6.52073 6.4774 6.49899 6.27932 6.49899 6.08353C6.49899 5.91344 6.51434 5.74604 6.54375 5.58351C6.77906 4.269 7.92872 3.27152 9.31113 3.27152C10.8636 3.27152 12.122 4.53116 12.122 6.08353C12.122 6.81885 11.8164 7.58755 11.4084 8.28579ZM14.0824 9.77038L18.4151 7.60418V0.0220184H0V6.52089L4.33266 4.35468L5.84296 5.19346C5.77006 5.47749 5.7317 5.77674 5.7317 6.08353C5.7317 6.12841 5.73298 6.17189 5.73426 6.21652L4.33266 5.43772L0 7.60418V15.1876L4.33266 13.0212L14.0824 18.4344L18.4152 16.1375L18.4151 8.68734L14.0824 10.8537L11.5619 9.45336C11.7422 9.2013 11.9174 8.93544 12.0785 8.6578L14.0824 9.77038Z" fill="#007D55"/>
<path d="M5.7317 6.08357C5.7317 6.12846 5.73298 6.17181 5.73426 6.21657L4.33266 5.43776L0 7.60422V6.52093L4.33266 4.3546L5.84296 5.19351C5.77006 5.47753 5.7317 5.77678 5.7317 6.08357Z" fill="white"/>
<path d="M18.4099 7.6042V8.68737L14.0772 10.8537L11.5566 9.45338C11.737 9.20133 11.9122 8.93546 12.0733 8.65783L14.0772 9.77041L18.4099 7.6042Z" fill="white"/>
<path d="M12.1162 6.08352C12.1162 6.81884 11.8105 7.58755 11.4026 8.28579C11.2414 8.56329 11.0637 8.83044 10.8808 9.07853C10.6903 9.34197 10.4946 9.58494 10.3105 9.79992L9.85392 10.3075C9.55582 10.6221 9.35262 10.8075 9.35262 10.8075C9.35262 10.8075 9.33727 10.8241 9.30786 10.8537C9.27717 10.8241 9.26182 10.8075 9.26182 10.8075C9.26182 10.8075 9.05849 10.6208 8.75924 10.3063L8.30398 9.79992C7.62109 9.0018 6.78474 7.83167 6.55455 6.67561C6.5149 6.4774 6.49316 6.27918 6.49316 6.08352C6.49316 5.91343 6.50851 5.74591 6.53792 5.5835C6.77323 4.26899 7.92289 3.27151 9.3053 3.27151C10.8578 3.27151 12.1162 4.53102 12.1162 6.08352Z" fill="white"/>
<path d="M118.833 31.7096H118.624C118.656 31.4358 118.695 31.1621 118.74 30.8883C118.784 30.6146 118.832 30.341 118.883 30.0672H119.11L119.538 31.2945L119.967 30.0672H120.199C120.249 30.341 120.296 30.6146 120.339 30.8883C120.383 31.1621 120.422 31.4358 120.458 31.7096H120.243C120.217 31.4892 120.188 31.2699 120.157 31.0514C120.125 30.8325 120.09 30.6134 120.052 30.3929L119.632 31.5979H119.445L119.03 30.3975C118.991 30.6177 118.956 30.8364 118.925 31.0534C118.894 31.2708 118.863 31.4892 118.833 31.7096ZM117.205 31.6336L117.24 31.4685C117.326 31.4983 117.409 31.5218 117.488 31.5399C117.567 31.5576 117.652 31.5666 117.745 31.5666C117.858 31.5666 117.95 31.5442 118.021 31.4996C118.093 31.4552 118.128 31.3853 118.128 31.2899C118.128 31.2127 118.107 31.1493 118.066 31.1002C118.024 31.0514 117.947 31.0164 117.834 30.9955L117.704 30.9687C117.541 30.936 117.422 30.8832 117.347 30.8103C117.273 30.7374 117.236 30.6327 117.236 30.4956C117.236 30.3559 117.288 30.242 117.392 30.1544C117.496 30.0665 117.634 30.0225 117.807 30.0225C117.893 30.0225 117.978 30.0332 118.061 30.0539C118.145 30.0748 118.214 30.1002 118.271 30.1297L118.231 30.2902C118.091 30.2399 117.956 30.2146 117.825 30.2146C117.718 30.2146 117.628 30.2352 117.555 30.2769C117.482 30.3186 117.445 30.3869 117.445 30.4823C117.445 30.5566 117.467 30.6159 117.51 30.6607C117.553 30.7053 117.63 30.7397 117.74 30.7634L117.869 30.7901C118.033 30.823 118.152 30.8781 118.226 30.9554C118.301 31.0327 118.338 31.1368 118.338 31.2675C118.338 31.3867 118.31 31.4819 118.253 31.5532C118.197 31.6246 118.124 31.6761 118.035 31.7071C117.945 31.7385 117.85 31.7541 117.749 31.7541C117.636 31.7541 117.533 31.7414 117.441 31.7162C117.349 31.6909 117.27 31.6633 117.205 31.6336Z" fill="black"/>
</svg>
